<?xml version="1.0" encoding="utf-8" standalone="no"?>
<!DOCTYPE svg PUBLIC "-//W3C//DTD SVG 1.1//EN"
  "http://www.w3.org/Graphics/SVG/1.1/DTD/svg11.dtd">
<!-- Created with matplotlib (http://matplotlib.org/) -->
<svg height="345.6pt" version="1.1" viewBox="0 0 460.8 345.6" width="460.8pt" xmlns="http://www.w3.org/2000/svg" xmlns:xlink="http://www.w3.org/1999/xlink">
 <defs>
  <style type="text/css">
*{stroke-linecap:butt;stroke-linejoin:round;}
  </style>
 </defs>
 <g id="figure_1">
  <g id="patch_1">
   <path d="M 0 345.6 
L 460.8 345.6 
L 460.8 0 
L 0 0 
z
" style="fill:#ffffff;"/>
  </g>
  <g id="axes_1">
   <g id="patch_2">
    <path d="M 57.6 307.584 
L 414.72 307.584 
L 414.72 41.472 
L 57.6 41.472 
z
" style="fill:#ffffff;"/>
   </g>
   <g id="matplotlib.axis_1">
    <g id="xtick_1">
     <g id="line2d_1">
      <defs>
       <path d="M 0 0 
L 0 3.5 
" id="m2ff6a9fef8" style="stroke:#000000;stroke-width:0.8;"/>
      </defs>
      <g>
       <use style="stroke:#000000;stroke-width:0.8;" x="73.832727" xlink:href="#m2ff6a9fef8" y="307.584"/>
      </g>
     </g>
     <g id="text_1">
      <!-- 0 -->
      <defs>
       <path d="M 31.78125 66.40625 
Q 24.171875 66.40625 20.328125 58.90625 
Q 16.5 51.421875 16.5 36.375 
Q 16.5 21.390625 20.328125 13.890625 
Q 24.171875 6.390625 31.78125 6.390625 
Q 39.453125 6.390625 43.28125 13.890625 
Q 47.125 21.390625 47.125 36.375 
Q 47.125 51.421875 43.28125 58.90625 
Q 39.453125 66.40625 31.78125 66.40625 
z
M 31.78125 74.21875 
Q 44.046875 74.21875 50.515625 64.515625 
Q 56.984375 54.828125 56.984375 36.375 
Q 56.984375 17.96875 50.515625 8.265625 
Q 44.046875 -1.421875 31.78125 -1.421875 
Q 19.53125 -1.421875 13.0625 8.265625 
Q 6.59375 17.96875 6.59375 36.375 
Q 6.59375 54.828125 13.0625 64.515625 
Q 19.53125 74.21875 31.78125 74.21875 
z
" id="DejaVuSans-30"/>
      </defs>
      <g transform="translate(70.651477 322.182437)scale(0.1 -0.1)">
       <use xlink:href="#DejaVuSans-30"/>
      </g>
     </g>
    </g>
    <g id="xtick_2">
     <g id="line2d_2">
      <g>
       <use style="stroke:#000000;stroke-width:0.8;" x="138.828632" xlink:href="#m2ff6a9fef8" y="307.584"/>
      </g>
     </g>
     <g id="text_2">
      <!-- 200 -->
      <defs>
       <path d="M 19.1875 8.296875 
L 53.609375 8.296875 
L 53.609375 0 
L 7.328125 0 
L 7.328125 8.296875 
Q 12.9375 14.109375 22.625 23.890625 
Q 32.328125 33.6875 34.8125 36.53125 
Q 39.546875 41.84375 41.421875 45.53125 
Q 43.3125 49.21875 43.3125 52.78125 
Q 43.3125 58.59375 39.234375 62.25 
Q 35.15625 65.921875 28.609375 65.921875 
Q 23.96875 65.921875 18.8125 64.3125 
Q 13.671875 62.703125 7.8125 59.421875 
L 7.8125 69.390625 
Q 13.765625 71.78125 18.9375 73 
Q 24.125 74.21875 28.421875 74.21875 
Q 39.75 74.21875 46.484375 68.546875 
Q 53.21875 62.890625 53.21875 53.421875 
Q 53.21875 48.921875 51.53125 44.890625 
Q 49.859375 40.875 45.40625 35.40625 
Q 44.1875 33.984375 37.640625 27.21875 
Q 31.109375 20.453125 19.1875 8.296875 
z
" id="DejaVuSans-32"/>
      </defs>
      <g transform="translate(129.284882 322.182437)scale(0.1 -0.1)">
       <use xlink:href="#DejaVuSans-32"/>
       <use x="63.623047" xlink:href="#DejaVuSans-30"/>
       <use x="127.246094" xlink:href="#DejaVuSans-30"/>
      </g>
     </g>
    </g>
    <g id="xtick_3">
     <g id="line2d_3">
      <g>
       <use style="stroke:#000000;stroke-width:0.8;" x="203.824537" xlink:href="#m2ff6a9fef8" y="307.584"/>
      </g>
     </g>
     <g id="text_3">
      <!-- 400 -->
      <defs>
       <path d="M 37.796875 64.3125 
L 12.890625 25.390625 
L 37.796875 25.390625 
z
M 35.203125 72.90625 
L 47.609375 72.90625 
L 47.609375 25.390625 
L 58.015625 25.390625 
L 58.015625 17.1875 
L 47.609375 17.1875 
L 47.609375 0 
L 37.796875 0 
L 37.796875 17.1875 
L 4.890625 17.1875 
L 4.890625 26.703125 
z
" id="DejaVuSans-34"/>
      </defs>
      <g transform="translate(194.280787 322.182437)scale(0.1 -0.1)">
       <use xlink:href="#DejaVuSans-34"/>
       <use x="63.623047" xlink:href="#DejaVuSans-30"/>
       <use x="127.246094" xlink:href="#DejaVuSans-30"/>
      </g>
     </g>
    </g>
    <g id="xtick_4">
     <g id="line2d_4">
      <g>
       <use style="stroke:#000000;stroke-width:0.8;" x="268.820442" xlink:href="#m2ff6a9fef8" y="307.584"/>
      </g>
     </g>
     <g id="text_4">
      <!-- 600 -->
      <defs>
       <path d="M 33.015625 40.375 
Q 26.375 40.375 22.484375 35.828125 
Q 18.609375 31.296875 18.609375 23.390625 
Q 18.609375 15.53125 22.484375 10.953125 
Q 26.375 6.390625 33.015625 6.390625 
Q 39.65625 6.390625 43.53125 10.953125 
Q 47.40625 15.53125 47.40625 23.390625 
Q 47.40625 31.296875 43.53125 35.828125 
Q 39.65625 40.375 33.015625 40.375 
z
M 52.59375 71.296875 
L 52.59375 62.3125 
Q 48.875 64.0625 45.09375 64.984375 
Q 41.3125 65.921875 37.59375 65.921875 
Q 27.828125 65.921875 22.671875 59.328125 
Q 17.53125 52.734375 16.796875 39.40625 
Q 19.671875 43.65625 24.015625 45.921875 
Q 28.375 48.1875 33.59375 48.1875 
Q 44.578125 48.1875 50.953125 41.515625 
Q 57.328125 34.859375 57.328125 23.390625 
Q 57.328125 12.15625 50.6875 5.359375 
Q 44.046875 -1.421875 33.015625 -1.421875 
Q 20.359375 -1.421875 13.671875 8.265625 
Q 6.984375 17.96875 6.984375 36.375 
Q 6.984375 53.65625 15.1875 63.9375 
Q 23.390625 74.21875 37.203125 74.21875 
Q 40.921875 74.21875 44.703125 73.484375 
Q 48.484375 72.75 52.59375 71.296875 
z
" id="DejaVuSans-36"/>
      </defs>
      <g transform="translate(259.276692 322.182437)scale(0.1 -0.1)">
       <use xlink:href="#DejaVuSans-36"/>
       <use x="63.623047" xlink:href="#DejaVuSans-30"/>
       <use x="127.246094" xlink:href="#DejaVuSans-30"/>
      </g>
     </g>
    </g>
    <g id="xtick_5">
     <g id="line2d_5">
      <g>
       <use style="stroke:#000000;stroke-width:0.8;" x="333.816347" xlink:href="#m2ff6a9fef8" y="307.584"/>
      </g>
     </g>
     <g id="text_5">
      <!-- 800 -->
      <defs>
       <path d="M 31.78125 34.625 
Q 24.75 34.625 20.71875 30.859375 
Q 16.703125 27.09375 16.703125 20.515625 
Q 16.703125 13.921875 20.71875 10.15625 
Q 24.75 6.390625 31.78125 6.390625 
Q 38.8125 6.390625 42.859375 10.171875 
Q 46.921875 13.96875 46.921875 20.515625 
Q 46.921875 27.09375 42.890625 30.859375 
Q 38.875 34.625 31.78125 34.625 
z
M 21.921875 38.8125 
Q 15.578125 40.375 12.03125 44.71875 
Q 8.5 49.078125 8.5 55.328125 
Q 8.5 64.0625 14.71875 69.140625 
Q 20.953125 74.21875 31.78125 74.21875 
Q 42.671875 74.21875 48.875 69.140625 
Q 55.078125 64.0625 55.078125 55.328125 
Q 55.078125 49.078125 51.53125 44.71875 
Q 48 40.375 41.703125 38.8125 
Q 48.828125 37.15625 52.796875 32.3125 
Q 56.78125 27.484375 56.78125 20.515625 
Q 56.78125 9.90625 50.3125 4.234375 
Q 43.84375 -1.421875 31.78125 -1.421875 
Q 19.734375 -1.421875 13.25 4.234375 
Q 6.78125 9.90625 6.78125 20.515625 
Q 6.78125 27.484375 10.78125 32.3125 
Q 14.796875 37.15625 21.921875 38.8125 
z
M 18.3125 54.390625 
Q 18.3125 48.734375 21.84375 45.5625 
Q 25.390625 42.390625 31.78125 42.390625 
Q 38.140625 42.390625 41.71875 45.5625 
Q 45.3125 48.734375 45.3125 54.390625 
Q 45.3125 60.0625 41.71875 63.234375 
Q 38.140625 66.40625 31.78125 66.40625 
Q 25.390625 66.40625 21.84375 63.234375 
Q 18.3125 60.0625 18.3125 54.390625 
z
" id="DejaVuSans-38"/>
      </defs>
      <g transform="translate(324.272597 322.182437)scale(0.1 -0.1)">
       <use xlink:href="#DejaVuSans-38"/>
       <use x="63.623047" xlink:href="#DejaVuSans-30"/>
       <use x="127.246094" xlink:href="#DejaVuSans-30"/>
      </g>
     </g>
    </g>
    <g id="xtick_6">
     <g id="line2d_6">
      <g>
       <use style="stroke:#000000;stroke-width:0.8;" x="398.812252" xlink:href="#m2ff6a9fef8" y="307.584"/>
      </g>
     </g>
     <g id="text_6">
      <!-- 1000 -->
      <defs>
       <path d="M 12.40625 8.296875 
L 28.515625 8.296875 
L 28.515625 63.921875 
L 10.984375 60.40625 
L 10.984375 69.390625 
L 28.421875 72.90625 
L 38.28125 72.90625 
L 38.28125 8.296875 
L 54.390625 8.296875 
L 54.390625 0 
L 12.40625 0 
z
" id="DejaVuSans-31"/>
      </defs>
      <g transform="translate(386.087252 322.182437)scale(0.1 -0.1)">
       <use xlink:href="#DejaVuSans-31"/>
       <use x="63.623047" xlink:href="#DejaVuSans-30"/>
       <use x="127.246094" xlink:href="#DejaVuSans-30"/>
       <use x="190.869141" xlink:href="#DejaVuSans-30"/>
      </g>
     </g>
    </g>
    <g id="text_7">
     <!-- epoch -->
     <defs>
      <path d="M 56.203125 29.59375 
L 56.203125 25.203125 
L 14.890625 25.203125 
Q 15.484375 15.921875 20.484375 11.0625 
Q 25.484375 6.203125 34.421875 6.203125 
Q 39.59375 6.203125 44.453125 7.46875 
Q 49.3125 8.734375 54.109375 11.28125 
L 54.109375 2.78125 
Q 49.265625 0.734375 44.1875 -0.34375 
Q 39.109375 -1.421875 33.890625 -1.421875 
Q 20.796875 -1.421875 13.15625 6.1875 
Q 5.515625 13.8125 5.515625 26.8125 
Q 5.515625 40.234375 12.765625 48.109375 
Q 20.015625 56 32.328125 56 
Q 43.359375 56 49.78125 48.890625 
Q 56.203125 41.796875 56.203125 29.59375 
z
M 47.21875 32.234375 
Q 47.125 39.59375 43.09375 43.984375 
Q 39.0625 48.390625 32.421875 48.390625 
Q 24.90625 48.390625 20.390625 44.140625 
Q 15.875 39.890625 15.1875 32.171875 
z
" id="DejaVuSans-65"/>
      <path d="M 18.109375 8.203125 
L 18.109375 -20.796875 
L 9.078125 -20.796875 
L 9.078125 54.6875 
L 18.109375 54.6875 
L 18.109375 46.390625 
Q 20.953125 51.265625 25.265625 53.625 
Q 29.59375 56 35.59375 56 
Q 45.5625 56 51.78125 48.09375 
Q 58.015625 40.1875 58.015625 27.296875 
Q 58.015625 14.40625 51.78125 6.484375 
Q 45.5625 -1.421875 35.59375 -1.421875 
Q 29.59375 -1.421875 25.265625 0.953125 
Q 20.953125 3.328125 18.109375 8.203125 
z
M 48.6875 27.296875 
Q 48.6875 37.203125 44.609375 42.84375 
Q 40.53125 48.484375 33.40625 48.484375 
Q 26.265625 48.484375 22.1875 42.84375 
Q 18.109375 37.203125 18.109375 27.296875 
Q 18.109375 17.390625 22.1875 11.75 
Q 26.265625 6.109375 33.40625 6.109375 
Q 40.53125 6.109375 44.609375 11.75 
Q 48.6875 17.390625 48.6875 27.296875 
z
" id="DejaVuSans-70"/>
      <path d="M 30.609375 48.390625 
Q 23.390625 48.390625 19.1875 42.75 
Q 14.984375 37.109375 14.984375 27.296875 
Q 14.984375 17.484375 19.15625 11.84375 
Q 23.34375 6.203125 30.609375 6.203125 
Q 37.796875 6.203125 41.984375 11.859375 
Q 46.1875 17.53125 46.1875 27.296875 
Q 46.1875 37.015625 41.984375 42.703125 
Q 37.796875 48.390625 30.609375 48.390625 
z
M 30.609375 56 
Q 42.328125 56 49.015625 48.375 
Q 55.71875 40.765625 55.71875 27.296875 
Q 55.71875 13.875 49.015625 6.21875 
Q 42.328125 -1.421875 30.609375 -1.421875 
Q 18.84375 -1.421875 12.171875 6.21875 
Q 5.515625 13.875 5.515625 27.296875 
Q 5.515625 40.765625 12.171875 48.375 
Q 18.84375 56 30.609375 56 
z
" id="DejaVuSans-6f"/>
      <path d="M 48.78125 52.59375 
L 48.78125 44.1875 
Q 44.96875 46.296875 41.140625 47.34375 
Q 37.3125 48.390625 33.40625 48.390625 
Q 24.65625 48.390625 19.8125 42.84375 
Q 14.984375 37.3125 14.984375 27.296875 
Q 14.984375 17.28125 19.8125 11.734375 
Q 24.65625 6.203125 33.40625 6.203125 
Q 37.3125 6.203125 41.140625 7.25 
Q 44.96875 8.296875 48.78125 10.40625 
L 48.78125 2.09375 
Q 45.015625 0.34375 40.984375 -0.53125 
Q 36.96875 -1.421875 32.421875 -1.421875 
Q 20.0625 -1.421875 12.78125 6.34375 
Q 5.515625 14.109375 5.515625 27.296875 
Q 5.515625 40.671875 12.859375 48.328125 
Q 20.21875 56 33.015625 56 
Q 37.15625 56 41.109375 55.140625 
Q 45.0625 54.296875 48.78125 52.59375 
z
" id="DejaVuSans-63"/>
      <path d="M 54.890625 33.015625 
L 54.890625 0 
L 45.90625 0 
L 45.90625 32.71875 
Q 45.90625 40.484375 42.875 44.328125 
Q 39.84375 48.1875 33.796875 48.1875 
Q 26.515625 48.1875 22.3125 43.546875 
Q 18.109375 38.921875 18.109375 30.90625 
L 18.109375 0 
L 9.078125 0 
L 9.078125 75.984375 
L 18.109375 75.984375 
L 18.109375 46.1875 
Q 21.34375 51.125 25.703125 53.5625 
Q 30.078125 56 35.796875 56 
Q 45.21875 56 50.046875 50.171875 
Q 54.890625 44.34375 54.890625 33.015625 
z
" id="DejaVuSans-68"/>
     </defs>
     <g transform="translate(220.931875 335.860562)scale(0.1 -0.1)">
      <use xlink:href="#DejaVuSans-65"/>
      <use x="61.523438" xlink:href="#DejaVuSans-70"/>
      <use x="125" xlink:href="#DejaVuSans-6f"/>
      <use x="186.181641" xlink:href="#DejaVuSans-63"/>
      <use x="241.162109" xlink:href="#DejaVuSans-68"/>
     </g>
    </g>
   </g>
   <g id="matplotlib.axis_2">
    <g id="ytick_1">
     <g id="line2d_7">
      <defs>
       <path d="M 0 0 
L -3.5 0 
" id="m4dd40fc2f5" style="stroke:#000000;stroke-width:0.8;"/>
      </defs>
      <g>
       <use style="stroke:#000000;stroke-width:0.8;" x="57.6" xlink:href="#m4dd40fc2f5" y="296.261432"/>
      </g>
     </g>
     <g id="text_8">
      <!-- 0.0 -->
      <defs>
       <path d="M 10.6875 12.40625 
L 21 12.40625 
L 21 0 
L 10.6875 0 
z
" id="DejaVuSans-2e"/>
      </defs>
      <g transform="translate(34.696875 300.060651)scale(0.1 -0.1)">
       <use xlink:href="#DejaVuSans-30"/>
       <use x="63.623047" xlink:href="#DejaVuSans-2e"/>
       <use x="95.410156" xlink:href="#DejaVuSans-30"/>
      </g>
     </g>
    </g>
    <g id="ytick_2">
     <g id="line2d_8">
      <g>
       <use style="stroke:#000000;stroke-width:0.8;" x="57.6" xlink:href="#m4dd40fc2f5" y="245.988324"/>
      </g>
     </g>
     <g id="text_9">
      <!-- 0.2 -->
      <g transform="translate(34.696875 249.787543)scale(0.1 -0.1)">
       <use xlink:href="#DejaVuSans-30"/>
       <use x="63.623047" xlink:href="#DejaVuSans-2e"/>
       <use x="95.410156" xlink:href="#DejaVuSans-32"/>
      </g>
     </g>
    </g>
    <g id="ytick_3">
     <g id="line2d_9">
      <g>
       <use style="stroke:#000000;stroke-width:0.8;" x="57.6" xlink:href="#m4dd40fc2f5" y="195.715215"/>
      </g>
     </g>
     <g id="text_10">
      <!-- 0.4 -->
      <g transform="translate(34.696875 199.514434)scale(0.1 -0.1)">
       <use xlink:href="#DejaVuSans-30"/>
       <use x="63.623047" xlink:href="#DejaVuSans-2e"/>
       <use x="95.410156" xlink:href="#DejaVuSans-34"/>
      </g>
     </g>
    </g>
    <g id="ytick_4">
     <g id="line2d_10">
      <g>
       <use style="stroke:#000000;stroke-width:0.8;" x="57.6" xlink:href="#m4dd40fc2f5" y="145.442106"/>
      </g>
     </g>
     <g id="text_11">
      <!-- 0.6 -->
      <g transform="translate(34.696875 149.241325)scale(0.1 -0.1)">
       <use xlink:href="#DejaVuSans-30"/>
       <use x="63.623047" xlink:href="#DejaVuSans-2e"/>
       <use x="95.410156" xlink:href="#DejaVuSans-36"/>
      </g>
     </g>
    </g>
    <g id="ytick_5">
     <g id="line2d_11">
      <g>
       <use style="stroke:#000000;stroke-width:0.8;" x="57.6" xlink:href="#m4dd40fc2f5" y="95.168998"/>
      </g>
     </g>
     <g id="text_12">
      <!-- 0.8 -->
      <g transform="translate(34.696875 98.968216)scale(0.1 -0.1)">
       <use xlink:href="#DejaVuSans-30"/>
       <use x="63.623047" xlink:href="#DejaVuSans-2e"/>
       <use x="95.410156" xlink:href="#DejaVuSans-38"/>
      </g>
     </g>
    </g>
    <g id="ytick_6">
     <g id="line2d_12">
      <g>
       <use style="stroke:#000000;stroke-width:0.8;" x="57.6" xlink:href="#m4dd40fc2f5" y="44.895889"/>
      </g>
     </g>
     <g id="text_13">
      <!-- 1.0 -->
      <g transform="translate(34.696875 48.695108)scale(0.1 -0.1)">
       <use xlink:href="#DejaVuSans-31"/>
       <use x="63.623047" xlink:href="#DejaVuSans-2e"/>
       <use x="95.410156" xlink:href="#DejaVuSans-30"/>
      </g>
     </g>
    </g>
    <g id="text_14">
     <!-- accuracy -->
     <defs>
      <path d="M 34.28125 27.484375 
Q 23.390625 27.484375 19.1875 25 
Q 14.984375 22.515625 14.984375 16.5 
Q 14.984375 11.71875 18.140625 8.90625 
Q 21.296875 6.109375 26.703125 6.109375 
Q 34.1875 6.109375 38.703125 11.40625 
Q 43.21875 16.703125 43.21875 25.484375 
L 43.21875 27.484375 
z
M 52.203125 31.203125 
L 52.203125 0 
L 43.21875 0 
L 43.21875 8.296875 
Q 40.140625 3.328125 35.546875 0.953125 
Q 30.953125 -1.421875 24.3125 -1.421875 
Q 15.921875 -1.421875 10.953125 3.296875 
Q 6 8.015625 6 15.921875 
Q 6 25.140625 12.171875 29.828125 
Q 18.359375 34.515625 30.609375 34.515625 
L 43.21875 34.515625 
L 43.21875 35.40625 
Q 43.21875 41.609375 39.140625 45 
Q 35.0625 48.390625 27.6875 48.390625 
Q 23 48.390625 18.546875 47.265625 
Q 14.109375 46.140625 10.015625 43.890625 
L 10.015625 52.203125 
Q 14.9375 54.109375 19.578125 55.046875 
Q 24.21875 56 28.609375 56 
Q 40.484375 56 46.34375 49.84375 
Q 52.203125 43.703125 52.203125 31.203125 
z
" id="DejaVuSans-61"/>
      <path d="M 8.5 21.578125 
L 8.5 54.6875 
L 17.484375 54.6875 
L 17.484375 21.921875 
Q 17.484375 14.15625 20.5 10.265625 
Q 23.53125 6.390625 29.59375 6.390625 
Q 36.859375 6.390625 41.078125 11.03125 
Q 45.3125 15.671875 45.3125 23.6875 
L 45.3125 54.6875 
L 54.296875 54.6875 
L 54.296875 0 
L 45.3125 0 
L 45.3125 8.40625 
Q 42.046875 3.421875 37.71875 1 
Q 33.40625 -1.421875 27.6875 -1.421875 
Q 18.265625 -1.421875 13.375 4.4375 
Q 8.5 10.296875 8.5 21.578125 
z
M 31.109375 56 
z
" id="DejaVuSans-75"/>
      <path d="M 41.109375 46.296875 
Q 39.59375 47.171875 37.8125 47.578125 
Q 36.03125 48 33.890625 48 
Q 26.265625 48 22.1875 43.046875 
Q 18.109375 38.09375 18.109375 28.8125 
L 18.109375 0 
L 9.078125 0 
L 9.078125 54.6875 
L 18.109375 54.6875 
L 18.109375 46.1875 
Q 20.953125 51.171875 25.484375 53.578125 
Q 30.03125 56 36.53125 56 
Q 37.453125 56 38.578125 55.875 
Q 39.703125 55.765625 41.0625 55.515625 
z
" id="DejaVuSans-72"/>
      <path d="M 32.171875 -5.078125 
Q 28.375 -14.84375 24.75 -17.8125 
Q 21.140625 -20.796875 15.09375 -20.796875 
L 7.90625 -20.796875 
L 7.90625 -13.28125 
L 13.1875 -13.28125 
Q 16.890625 -13.28125 18.9375 -11.515625 
Q 21 -9.765625 23.484375 -3.21875 
L 25.09375 0.875 
L 2.984375 54.6875 
L 12.5 54.6875 
L 29.59375 11.921875 
L 46.6875 54.6875 
L 56.203125 54.6875 
z
" id="DejaVuSans-79"/>
     </defs>
     <g transform="translate(28.617187 197.087375)rotate(-90)scale(0.1 -0.1)">
      <use xlink:href="#DejaVuSans-61"/>
      <use x="61.279297" xlink:href="#DejaVuSans-63"/>
      <use x="116.259766" xlink:href="#DejaVuSans-63"/>
      <use x="171.240234" xlink:href="#DejaVuSans-75"/>
      <use x="234.619141" xlink:href="#DejaVuSans-72"/>
      <use x="275.732422" xlink:href="#DejaVuSans-61"/>
      <use x="337.011719" xlink:href="#DejaVuSans-63"/>
      <use x="391.992188" xlink:href="#DejaVuSans-79"/>
     </g>
    </g>
   </g>
   <g id="line2d_13">
    <path clip-path="url(#p1ceeffa41a)" d="M 73.832727 295.275306 
L 74.482686 295.202797 
L 75.132645 293.003348 
L 75.457625 292.312093 
L 75.782604 290.905413 
L 76.757543 278.008427 
L 80.332318 214.925343 
L 80.657297 211.067849 
L 81.632236 195.734551 
L 82.932154 178.89306 
L 84.557052 163.366403 
L 84.882031 161.379649 
L 85.207011 157.744517 
L 85.53199 155.960787 
L 86.831908 146.969636 
L 87.156888 145.741811 
L 87.481867 143.503691 
L 87.806847 142.309705 
L 88.456806 138.471546 
L 91.056642 127.479138 
L 91.381622 126.986075 
L 92.031581 124.182382 
L 92.35656 122.171458 
L 92.68154 121.813745 
L 93.331499 119.628798 
L 93.656478 118.599167 
L 93.981458 117.129645 
L 94.631417 116.39005 
L 94.956396 115.012374 
L 95.281376 114.833517 
L 95.606355 114.021414 
L 95.931335 112.566393 
L 96.256314 112.348865 
L 96.581294 110.594141 
L 96.906274 109.656354 
L 97.231253 110.265432 
L 97.556233 108.747571 
L 97.881212 108.114323 
L 98.206192 107.935467 
L 98.531171 107.200706 
L 98.856151 106.959008 
L 99.18113 105.373472 
L 100.156069 103.555906 
L 100.481048 103.923286 
L 100.806028 102.100886 
L 101.131007 101.491809 
L 101.455987 102.009041 
L 101.780966 100.578191 
L 102.105946 100.819889 
L 102.430925 99.911105 
L 103.080885 98.813798 
L 103.405864 97.706823 
L 103.730844 97.547303 
L 104.380803 96.595014 
L 104.705782 96.56601 
L 105.355741 95.299515 
L 105.680721 94.922466 
L 106.33068 94.632429 
L 106.655659 93.491617 
L 107.305618 92.771357 
L 107.630598 92.123608 
L 107.955577 92.24929 
L 108.280557 92.534494 
L 108.605536 91.765895 
L 108.930516 91.843238 
L 109.255495 90.649252 
L 109.905455 90.233532 
L 110.230434 89.75497 
L 110.555414 88.614157 
L 110.880393 88.39663 
L 111.205373 89.029877 
L 111.530352 88.304784 
L 111.855332 88.241943 
L 112.180311 88.430467 
L 112.505291 87.632865 
L 113.15525 86.898104 
L 113.480229 87.110799 
L 113.805209 85.926479 
L 114.130188 86.380871 
L 114.455168 86.405041 
L 115.105127 85.056369 
L 115.430106 85.307734 
L 115.755086 84.921017 
L 116.080066 84.732494 
L 117.055004 83.262972 
L 117.379984 83.683525 
L 117.704963 82.934263 
L 118.029943 83.52884 
L 118.354922 82.547547 
L 118.679902 82.455701 
L 119.329861 82.117325 
L 119.65484 81.60976 
L 119.97982 81.314889 
L 120.629779 81.571088 
L 120.954758 80.918504 
L 121.279738 81.1457 
L 121.929697 80.377102 
L 122.254676 79.642341 
L 122.579656 79.569831 
L 122.904636 79.826031 
L 123.229615 79.76319 
L 123.554595 79.448983 
L 123.879574 78.965588 
L 124.204554 79.361972 
L 124.854513 78.487027 
L 125.179492 78.646547 
L 125.504472 77.969794 
L 125.829451 77.824775 
L 126.154431 78.027802 
L 126.47941 77.974628 
L 126.80439 77.249535 
L 127.129369 77.844111 
L 127.454349 77.515402 
L 127.779328 77.012672 
L 128.104308 77.312376 
L 128.429287 77.012671 
L 128.754267 76.205401 
L 129.079247 76.277911 
L 129.404226 75.9347 
L 129.729206 76.746804 
L 130.054185 75.98304 
L 130.379165 75.630161 
L 130.704144 75.833187 
L 131.029124 75.19994 
L 131.679083 75.238611 
L 132.004062 75.069422 
L 132.329042 75.040419 
L 132.654021 74.885732 
L 132.979001 74.247651 
L 133.30398 74.436175 
L 133.62896 74.426506 
L 133.953939 73.962447 
L 134.278919 74.629533 
L 134.928878 73.899607 
L 135.578837 73.285694 
L 135.903817 73.653074 
L 136.228796 73.445214 
L 136.553776 73.537059 
L 136.878755 73.160011 
L 137.203735 73.005325 
L 137.853694 73.179347 
L 138.178673 73.430713 
L 138.503653 73.048831 
L 138.828632 72.31407 
L 139.153612 72.613775 
L 139.803571 71.511634 
L 140.12855 71.777501 
L 140.45353 72.2899 
L 140.778509 71.579309 
L 141.103489 72.038534 
L 141.428468 71.414955 
L 141.753448 71.187759 
L 142.078428 71.352113 
L 142.728387 71.110416 
L 143.053366 71.163588 
L 143.378346 70.747869 
L 143.703325 70.728533 
L 144.028305 70.965397 
L 144.353284 70.573847 
L 145.003243 70.598016 
L 145.328223 70.472333 
L 145.653202 70.55451 
L 145.978182 70.046946 
L 146.303161 70.017942 
L 146.628141 69.292849 
L 147.2781 70.158126 
L 147.603079 69.602222 
L 147.928059 69.689233 
L 148.253038 69.621558 
L 148.578018 69.201004 
L 149.227977 69.466871 
L 149.552957 68.616095 
L 150.202916 69.113993 
L 150.527895 69.278347 
L 150.852875 68.80462 
L 151.177854 68.935136 
L 151.502834 68.814288 
L 151.827813 68.297055 
L 152.152793 68.263217 
L 152.477772 68.674103 
L 152.802752 68.529084 
L 153.127731 67.992516 
L 153.452711 68.794952 
L 153.77769 68.359896 
L 154.10267 67.673474 
L 154.427649 67.978014 
L 154.752629 67.339931 
L 155.402588 67.576795 
L 155.727568 67.861999 
L 156.702506 67.243253 
L 157.027486 67.571962 
L 157.352465 67.286758 
L 157.677445 66.740521 
L 158.002424 67.465614 
L 158.327404 66.933879 
L 158.652383 67.296426 
L 158.977363 66.987053 
L 159.302342 66.51816 
L 159.627322 66.600336 
L 160.277281 67.049895 
L 160.60226 66.566499 
L 160.92724 66.421481 
L 161.252219 66.460152 
L 161.577199 66.247458 
L 161.902179 66.943548 
L 162.227158 66.131443 
L 162.877117 66.044432 
L 163.202097 65.947753 
L 163.527076 66.281295 
L 163.852056 66.155613 
L 164.177035 65.870409 
L 164.502015 66.039599 
L 164.826994 65.957421 
L 165.476953 65.314506 
L 165.801933 66.319967 
L 166.126912 65.817236 
L 166.451892 66.025097 
L 166.776871 65.300003 
L 167.101851 65.609376 
L 167.42683 65.111479 
L 167.75181 65.232328 
L 168.07679 65.517531 
L 168.401769 65.159819 
L 169.051728 65.101811 
L 169.376708 65.677051 
L 169.701687 64.661921 
L 170.026667 65.101811 
L 170.351646 64.690925 
L 170.676626 64.879449 
L 171.001605 64.652254 
L 171.326585 64.681257 
L 171.651564 64.850445 
L 171.976544 64.719928 
L 172.301523 64.792438 
L 172.626503 64.139855 
L 172.951482 64.396054 
L 173.276462 64.033508 
L 173.601441 64.676423 
L 173.926421 64.270372 
L 174.90136 64.28004 
L 175.226339 63.699965 
L 175.551319 64.125352 
L 175.876298 63.820813 
L 176.201278 63.777308 
L 176.526257 63.941663 
L 176.851237 64.294541 
L 177.501196 63.521109 
L 178.151155 63.704799 
L 178.476134 64.004504 
L 178.801114 63.530776 
L 179.126093 63.264909 
L 179.451073 63.588785 
L 179.776052 63.066717 
L 180.101032 63.35192 
L 180.426011 63.260075 
L 180.750991 63.521109 
L 181.40095 63.052216 
L 181.72593 64.101183 
L 182.050909 63.090887 
L 182.375889 62.974872 
L 183.025848 63.187566 
L 183.350827 62.588156 
L 183.675807 62.921698 
L 184.000786 62.868525 
L 184.325766 62.950702 
L 184.650745 62.912031 
L 184.975725 63.293912 
L 185.300704 62.365794 
L 185.950663 62.762178 
L 186.275643 62.273949 
L 186.600622 62.660665 
L 186.925602 62.138598 
L 187.250581 62.791182 
L 187.575561 62.172436 
L 187.900541 62.346458 
L 188.22552 62.999042 
L 188.5505 61.964576 
L 188.875479 62.433469 
L 189.200459 62.109595 
L 189.525438 62.380296 
L 190.175397 61.94524 
L 190.825356 62.220775 
L 191.475315 62.061255 
L 191.800295 62.380296 
L 192.125274 61.83406 
L 192.450254 62.104761 
L 192.775233 61.790554 
L 193.100213 61.925905 
L 194.075152 61.239483 
L 194.400131 61.432842 
L 194.725111 61.887233 
L 195.05009 61.959742 
L 195.37507 61.519853 
L 195.700049 61.500517 
L 196.025029 62.196606 
L 196.350008 61.428008 
L 196.674988 61.181476 
L 196.999967 61.239484 
L 197.324947 61.563358 
L 197.974906 61.282989 
L 198.299885 61.838894 
L 198.624865 61.224981 
L 199.274824 61.834059 
L 199.599803 61.524686 
L 199.924783 60.847933 
L 200.249762 61.515019 
L 200.574742 61.181476 
L 201.224701 61.108967 
L 201.549681 60.669077 
L 201.87466 60.843099 
L 202.19964 60.751254 
L 202.524619 61.070295 
L 202.849599 61.205646 
L 203.499558 60.857601 
L 203.824537 60.475719 
L 204.149517 60.8431 
L 204.474496 60.862435 
L 204.799476 60.461217 
L 205.449435 60.408044 
L 205.774414 60.234022 
L 206.424373 60.77059 
L 206.749353 60.321032 
L 207.074333 60.533726 
L 207.399312 60.490221 
L 207.724292 60.306531 
L 208.049271 60.992952 
L 208.374251 60.818929 
L 208.69923 60.388708 
L 209.02421 60.881771 
L 209.674169 60.108338 
L 209.999148 60.321033 
L 210.324128 59.871475 
L 210.649107 60.35487 
L 210.974087 60.485387 
L 211.299066 60.122841 
L 211.624046 60.306531 
L 211.949025 59.856974 
L 212.598984 60.200184 
L 213.573923 59.900479 
L 213.898903 60.127675 
L 214.223882 60.01166 
L 214.873841 59.315571 
L 215.198821 59.953652 
L 215.5238 60.079335 
L 215.84878 60.050331 
L 216.173759 59.605608 
L 216.823718 59.402582 
L 217.148698 59.610442 
L 217.473677 59.402582 
L 217.798657 59.818302 
L 218.123636 59.77963 
L 218.448616 60.006826 
L 218.773595 60.079335 
L 219.098575 59.479925 
L 219.423554 59.533099 
L 219.748534 59.25273 
L 220.073514 59.508929 
L 220.398493 59.214057 
L 221.048452 59.325239 
L 221.373432 59.083541 
L 221.698411 59.054537 
L 222.023391 59.349409 
L 222.34837 59.127047 
L 222.67335 59.446087 
L 222.998329 59.281733 
L 223.323309 59.291401 
L 223.648288 58.890183 
L 223.973268 58.880515 
L 224.298247 59.402582 
L 224.623227 58.880516 
L 224.948206 59.20439 
L 225.598165 59.083541 
L 225.923145 59.38808 
L 226.248124 58.774168 
L 226.573104 59.238228 
L 226.898084 58.982028 
L 227.223063 58.909519 
L 227.548043 59.281733 
L 227.873022 59.054537 
L 228.198002 59.291401 
L 228.522981 59.146383 
L 228.847961 58.759667 
L 229.49792 58.827342 
L 229.822899 58.62915 
L 230.147879 58.846678 
L 230.472858 58.643651 
L 230.797838 59.088375 
L 231.122817 59.122213 
L 231.447797 58.324611 
L 231.772776 58.300441 
L 232.097756 58.426124 
L 232.422735 58.687157 
L 232.747715 59.146382 
L 233.072695 58.662987 
L 233.397674 58.648486 
L 233.722654 58.256936 
L 234.047633 58.256935 
L 234.372613 58.633984 
L 235.022572 58.416456 
L 235.347551 58.121585 
L 235.672531 58.532471 
L 235.99751 58.749998 
L 236.32249 58.672655 
L 236.647469 58.169925 
L 236.972449 58.102249 
L 237.297428 58.614648 
L 237.947387 58.232766 
L 238.922326 58.488965 
L 239.247305 58.435792 
L 239.572285 57.991068 
L 239.897265 58.339113 
L 240.222244 58.126419 
L 240.547224 58.082913 
L 240.872203 58.498633 
L 241.197183 58.18926 
L 241.847142 58.314943 
L 242.497101 57.9814 
L 242.82208 58.174758 
L 243.14706 58.218264 
L 243.472039 58.508301 
L 243.797019 58.276271 
L 244.121998 58.377784 
L 244.446978 57.865385 
L 244.771957 57.908891 
L 245.096937 57.672028 
L 245.421916 57.575348 
L 245.746896 57.638189 
L 246.071876 57.899223 
L 246.396855 57.82188 
L 246.721835 57.947563 
L 247.046814 58.469629 
L 247.371794 57.995902 
L 247.696773 57.788042 
L 248.346732 58.049076 
L 248.671712 57.63819 
L 248.996691 57.855717 
L 249.321671 57.831548 
L 249.64665 57.507673 
L 250.296609 57.493171 
L 250.621589 57.923393 
L 250.946568 58.058743 
L 251.271548 57.783208 
L 251.596527 57.101621 
L 251.921507 57.875053 
L 252.246486 57.570514 
L 252.571466 57.802544 
L 252.896446 57.58985 
L 253.221425 57.947563 
L 255.171302 57.251473 
L 255.821261 57.77354 
L 256.146241 57.333651 
L 256.47122 57.531843 
L 257.121179 57.430329 
L 257.446159 57.265976 
L 258.096118 57.623688 
L 258.421097 57.1983 
L 259.071057 57.35782 
L 259.396036 57.140293 
L 259.721016 57.22247 
L 260.695954 56.917931 
L 261.020934 57.22247 
L 261.345913 56.874425 
L 261.670893 57.290145 
L 262.320852 56.763244 
L 262.645831 56.835753 
L 262.970811 57.43033 
L 263.29579 57.024277 
L 263.945749 57.096787 
L 264.595708 56.792249 
L 264.920688 56.859924 
L 265.245667 56.642395 
L 265.570647 57.159628 
L 265.895627 56.429701 
L 266.220606 57.01461 
L 266.870565 57.348152 
L 267.195545 56.705237 
L 267.520524 56.946934 
L 267.845504 56.821252 
L 268.170483 57.091953 
L 268.495463 57.183798 
L 268.820442 56.80675 
L 269.145422 57.058116 
L 269.795381 57.159628 
L 270.44534 56.497377 
L 270.770319 57.304647 
L 271.095299 56.864758 
L 271.420278 56.903429 
L 271.745258 56.690735 
L 272.070238 56.801916 
L 272.395217 56.39103 
L 272.720197 56.980772 
L 273.045176 56.685901 
L 273.370156 56.845422 
L 273.695135 56.661731 
L 274.345094 56.763244 
L 274.995053 56.275015 
L 275.320033 56.956602 
L 275.645012 56.845422 
L 275.969992 56.23151 
L 276.294971 56.052654 
L 276.619951 56.487709 
L 276.94493 56.710071 
L 277.26991 56.62306 
L 277.594889 56.821252 
L 278.244848 56.555385 
L 278.569828 56.821252 
L 278.894808 56.869591 
L 279.219787 55.965642 
L 279.544767 56.787414 
L 279.869746 56.318521 
L 280.194726 56.540882 
L 280.519705 56.545716 
L 280.844685 56.246012 
L 281.169664 56.453872 
L 281.494644 55.936638 
L 281.819623 56.473207 
L 282.144603 56.73424 
L 282.469582 56.284683 
L 282.794562 56.246011 
L 283.119541 56.695569 
L 283.444521 56.313687 
L 283.7695 56.743908 
L 284.09448 56.371694 
L 284.419459 56.313687 
L 284.744439 56.59889 
L 285.719378 56.18317 
L 286.044357 56.318521 
L 286.369337 56.076823 
L 286.694316 56.642396 
L 287.019296 55.864129 
L 287.344275 56.478041 
L 287.669255 55.989812 
L 287.994234 56.299185 
L 288.319214 55.907635 
L 288.644193 56.473207 
L 288.969173 55.92697 
L 289.294152 56.458705 
L 289.619132 56.449038 
L 289.944111 56.816418 
L 290.269091 55.965642 
L 290.59407 56.405532 
L 290.91905 55.888299 
L 291.244029 55.748113 
L 291.569009 55.897966 
L 291.893989 56.410366 
L 292.543948 56.038151 
L 293.193907 56.163834 
L 293.518886 55.946306 
L 293.843866 56.23151 
L 294.168845 56.004313 
L 294.493825 55.97531 
L 294.818804 55.632099 
L 295.143784 55.801288 
L 295.468763 55.830292 
L 295.793743 56.13483 
L 296.118722 55.994646 
L 296.443702 56.507044 
L 296.768681 55.936639 
L 297.093661 56.013982 
L 297.41864 55.622431 
L 298.0686 56.284683 
L 298.718559 55.970476 
L 299.043538 55.912469 
L 299.368518 55.477413 
L 299.693497 55.931805 
L 300.018477 55.762616 
L 300.343456 55.912468 
L 300.668436 55.757782 
L 300.993415 55.946306 
L 301.643374 55.496749 
L 302.293333 56.091325 
L 302.618313 55.506416 
L 302.943292 55.675605 
L 303.268272 56.105827 
L 303.593251 55.835126 
L 303.918231 55.772284 
L 304.24321 55.97531 
L 304.56819 55.738446 
L 304.89317 55.74328 
L 305.218149 56.033318 
L 305.543129 55.912468 
L 305.868108 55.60793 
L 306.193088 55.941472 
L 306.518067 55.685273 
L 306.843047 55.917302 
L 307.168026 55.404903 
L 307.493006 55.825458 
L 308.467944 55.525752 
L 309.117903 55.603095 
L 309.442883 55.786786 
L 309.767862 55.632099 
L 310.092842 55.250217 
L 310.742801 55.723944 
L 311.39276 55.409737 
L 311.71774 55.569258 
L 312.042719 55.433907 
L 312.367699 55.603096 
L 312.692678 55.970476 
L 313.017658 55.395235 
L 313.667617 55.520918 
L 313.992596 55.061692 
L 314.967535 55.482247 
L 315.292514 55.443575 
L 315.942473 55.603096 
L 316.267453 55.593428 
L 316.592432 55.30339 
L 316.917412 55.612763 
L 317.567371 55.322726 
L 317.892351 55.264719 
L 318.21733 55.482247 
L 318.54231 55.129369 
L 318.867289 55.641766 
L 319.517248 55.293722 
L 319.842228 55.168039 
L 320.167207 55.201877 
L 320.492187 55.612764 
L 320.817166 55.419405 
L 321.142146 55.448409 
L 321.792105 54.931176 
L 322.117084 55.264719 
L 322.442064 55.337228 
L 322.767043 55.124533 
L 323.092023 55.124534 
L 323.417002 54.718482 
L 323.741982 55.491914 
L 324.066962 55.458077 
L 324.391941 55.071361 
L 324.716921 55.250217 
L 325.0419 55.081028 
L 325.36688 55.530586 
L 325.691859 55.139036 
L 326.016839 55.380734 
L 326.341818 55.085862 
L 326.666798 54.998851 
L 326.991777 55.105198 
L 327.316757 55.023021 
L 327.641736 55.366232 
L 328.291695 55.090696 
L 328.941654 55.187376 
L 329.266634 54.790991 
L 329.591613 55.153538 
L 330.241572 55.105198 
L 330.566552 54.645972 
L 330.891532 55.284054 
L 331.216511 54.936009 
L 331.541491 55.018187 
L 331.86647 54.960179 
L 332.516429 55.052025 
L 332.841409 54.771656 
L 333.491368 55.269552 
L 333.816347 55.1197 
L 334.141327 55.230881 
L 334.466306 54.921508 
L 334.791286 55.255051 
L 335.116265 54.737818 
L 335.441245 54.868335 
L 336.091204 54.670142 
L 336.416183 54.500953 
L 336.741163 54.965014 
L 337.066143 54.994018 
L 337.391122 55.16804 
L 337.716102 54.718482 
L 338.366061 54.713648 
L 339.01602 55.04719 
L 339.340999 54.549293 
L 339.665979 54.660473 
L 339.990958 54.597633 
L 340.315938 55.201877 
L 340.640917 54.616968 
L 340.965897 54.907005 
L 341.290876 54.969847 
L 341.615856 54.839331 
L 341.940835 54.573463 
L 342.265815 54.878002 
L 342.590794 55.027855 
L 343.240753 54.355935 
L 343.565733 54.945677 
L 343.890713 54.612134 
L 344.540672 55.003684 
L 344.865651 54.945678 
L 345.51561 54.6073 
L 345.84059 55.110032 
L 346.165569 54.945677 
L 346.490549 54.534791 
L 346.815528 55.066527 
L 347.140508 54.49612 
L 347.465487 54.491286 
L 347.790467 55.008519 
L 348.440426 54.902172 
L 349.415364 54.365603 
L 349.740344 54.684644 
L 350.065324 54.844164 
L 350.390303 54.742651 
L 350.715283 54.438112 
L 351.365242 54.752319 
L 351.690221 54.428445 
L 352.66516 54.699146 
L 352.990139 54.486452 
L 353.315119 54.549294 
L 353.640098 54.389773 
L 353.965078 54.781323 
L 354.290057 54.974681 
L 354.615037 54.365604 
L 355.264996 54.747485 
L 355.589975 54.897338 
L 355.914955 54.384938 
L 356.239934 54.525123 
L 356.564914 54.128739 
L 356.889894 54.907005 
L 357.214873 54.621802 
L 357.539853 54.708813 
L 357.864832 54.433278 
L 358.189812 54.597633 
L 358.514791 54.438112 
L 358.839771 54.549293 
L 359.16475 54.848999 
L 359.48973 54.578297 
L 360.139689 54.341433 
L 360.464668 54.766821 
L 360.789648 54.544459 
L 361.114627 54.181913 
L 361.439607 54.718482 
L 362.089566 54.355936 
L 362.414545 54.602467 
L 362.739525 54.529958 
L 363.064505 54.133573 
L 363.389484 54.539625 
L 363.714464 54.375271 
L 364.039443 54.694312 
L 364.364423 54.404275 
L 364.689402 54.496119 
L 365.339361 54.268924 
L 365.664341 53.935381 
L 365.98932 54.428444 
L 366.3143 54.090067 
L 366.639279 54.090068 
L 366.964259 54.438113 
L 367.289238 54.346266 
L 367.614218 54.457448 
L 367.939197 54.23992 
L 368.264177 54.389772 
L 369.239115 54.322098 
L 369.564095 54.534791 
L 369.889075 54.235086 
L 370.214054 54.394606 
L 370.539034 54.220584 
L 371.188993 54.085233 
L 371.513972 54.878002 
L 371.838952 54.152909 
L 372.163931 53.940215 
L 372.81389 54.399441 
L 373.13887 54.42361 
L 373.463849 54.31243 
L 373.788829 54.486452 
L 374.113808 54.244754 
L 374.438788 54.525123 
L 375.088747 53.887041 
L 375.413726 54.31243 
L 375.738706 54.341433 
L 376.063686 54.148075 
L 376.388665 54.67981 
L 377.363604 53.771026 
L 377.688583 53.95955 
L 378.013563 54.365603 
L 378.663522 54.26409 
L 378.988501 53.853203 
L 379.313481 54.119071 
L 380.288419 54.051395 
L 381.263358 54.104569 
L 381.588337 54.462282 
L 382.238296 53.887041 
L 382.563276 54.148075 
L 382.888256 54.172245 
L 383.213235 53.940215 
L 383.863194 53.998222 
L 384.188174 53.742023 
L 385.163112 54.520289 
L 385.488092 53.77586 
L 385.813071 54.186747 
L 386.138051 53.911211 
L 386.78801 53.867706 
L 387.437969 53.713019 
L 388.412907 54.104569 
L 388.737887 53.708185 
L 389.062867 54.201248 
L 389.387846 53.998222 
L 389.712826 54.114237 
L 390.037805 54.075566 
L 390.362785 53.664679 
L 390.687764 54.162577 
L 391.337723 53.761358 
L 391.662703 54.012724 
L 391.987682 53.766193 
L 392.312662 54.196415 
L 392.637641 53.969219 
L 392.962621 54.26409 
L 393.2876 53.974052 
L 393.937559 54.03206 
L 394.262539 53.891875 
L 394.587518 53.568 
L 394.912498 54.05623 
L 395.237477 53.659846 
L 395.562457 54.186746 
L 395.887437 53.766192 
L 396.212416 54.119071 
L 396.537396 53.771027 
L 396.862375 54.099735 
L 397.187355 53.771026 
L 397.512334 54.03206 
L 398.162293 53.862871 
L 398.487273 53.901543 
L 398.487273 53.901543 
" style="fill:none;stroke:#1f77b4;stroke-linecap:square;stroke-width:1.5;"/>
   </g>
   <g id="line2d_14">
    <path clip-path="url(#p1ceeffa41a)" d="M 73.832727 295.488 
L 74.157707 295.294642 
L 74.807666 293.438404 
L 75.457625 290.189988 
L 75.782604 286.284154 
L 78.057461 246.104339 
L 78.382441 237.55791 
L 78.70742 233.884107 
L 79.0324 227.271259 
L 79.682359 218.686159 
L 80.007338 211.686595 
L 80.332318 208.824895 
L 80.657297 199.582378 
L 80.982277 197.223409 
L 81.307256 192.892186 
L 81.632236 190.997277 
L 81.957215 184.732474 
L 82.282195 184.655131 
L 82.607174 179.666492 
L 83.582113 170.656005 
L 83.907093 170.965378 
L 84.232072 167.987662 
L 84.557052 166.943529 
L 84.882031 165.396664 
L 85.207011 165.783381 
L 85.53199 167.020872 
L 85.85697 160.253339 
L 86.181949 160.05998 
L 86.506929 156.850235 
L 86.831908 156.27016 
L 87.156888 152.364327 
L 87.481867 153.911192 
L 87.806847 153.215102 
L 88.131826 154.993997 
L 88.456806 150.933478 
L 88.781785 151.474879 
L 89.106765 147.143658 
L 89.756724 149.966689 
L 90.081704 146.099524 
L 90.731663 143.160481 
L 91.056642 142.773763 
L 92.031581 139.641362 
L 92.35656 139.873393 
L 92.68154 138.326528 
L 93.006519 137.514426 
L 93.331499 137.514424 
L 93.656478 140.530811 
L 94.306437 135.348813 
L 94.631417 136.083574 
L 94.956396 134.498036 
L 95.281376 137.321064 
L 95.606355 134.30468 
L 95.931335 134.033978 
L 96.256314 135.194128 
L 96.581294 132.951172 
L 96.906274 132.177741 
L 97.231253 133.840621 
L 97.556233 136.818337 
L 97.881212 130.746891 
L 98.206192 130.24416 
L 98.531171 130.592204 
L 98.856151 130.089473 
L 99.18113 130.824235 
L 99.831089 129.7801 
L 100.156069 130.669549 
L 100.481048 130.012131 
L 100.806028 127.730503 
L 101.131007 128.34925 
L 101.455987 127.769174 
L 101.780966 127.730503 
L 102.105946 125.990281 
L 102.430925 125.835594 
L 102.755905 126.260982 
L 103.080885 126.067623 
L 103.405864 126.918399 
L 103.730844 125.410206 
L 104.055823 125.912938 
L 104.380803 125.642236 
L 104.705782 126.299654 
L 105.030762 130.050802 
L 105.355741 124.327402 
L 105.680721 126.763714 
L 106.0057 124.327401 
L 106.33068 124.984819 
L 106.655659 124.250057 
L 106.980639 124.172714 
L 107.305618 123.669985 
L 107.630598 123.708656 
L 107.955577 122.432491 
L 108.280557 126.415669 
L 108.605536 123.012567 
L 108.930516 122.432492 
L 109.255495 126.299654 
L 109.580475 122.16179 
L 109.905455 121.427029 
L 110.230434 121.581717 
L 110.555414 121.543044 
L 110.880393 121.040313 
L 111.530352 120.769612 
L 111.855332 120.885627 
L 112.180311 120.228209 
L 112.505291 123.244596 
L 112.83027 121.813746 
L 113.15525 119.454776 
L 113.480229 120.692267 
L 113.805209 119.725479 
L 114.130188 120.034851 
L 114.455168 121.465701 
L 114.780147 119.802821 
L 115.105127 119.648137 
L 115.430106 120.266881 
L 115.755086 120.150868 
L 116.405045 118.487985 
L 116.730025 119.416105 
L 117.055004 121.581716 
L 117.379984 116.902447 
L 117.704963 117.714553 
L 118.029943 117.095806 
L 118.354922 117.443852 
L 118.679902 118.333298 
L 119.004881 117.250494 
L 119.329861 116.863776 
L 119.65484 119.841494 
L 119.97982 117.018463 
L 120.304799 117.907912 
L 120.629779 118.294625 
L 120.954758 118.139941 
L 121.279738 119.029388 
L 121.604717 116.322372 
L 121.929697 118.371971 
L 122.254676 115.626285 
L 122.579656 118.255956 
L 122.904636 116.167688 
L 123.229615 115.200897 
L 123.554595 115.278241 
L 123.879574 115.162226 
L 124.204554 115.664956 
L 124.529533 117.985254 
L 124.854513 115.239569 
L 125.179492 116.167688 
L 125.504472 115.046209 
L 125.829451 115.200897 
L 126.154431 114.54348 
L 126.47941 114.620822 
L 127.129369 115.703629 
L 127.454349 115.664957 
L 127.779328 114.311449 
L 128.104308 114.891523 
L 128.429287 113.924733 
L 128.754267 113.963405 
L 129.079247 115.084883 
L 129.404226 114.852852 
L 129.729206 113.305987 
L 130.054185 114.040747 
L 130.379165 113.112629 
L 130.704144 113.189973 
L 131.029124 112.957943 
L 131.354103 117.63721 
L 131.679083 113.808718 
L 132.004062 113.228645 
L 132.654021 115.355585 
L 132.979001 114.040749 
L 133.30398 116.090344 
L 133.62896 113.88606 
L 133.953939 115.394254 
L 134.278919 112.764584 
L 134.603898 113.112628 
L 134.928878 113.924733 
L 135.253857 113.073958 
L 135.578837 113.654031 
L 135.903817 111.875138 
L 136.228796 112.339197 
L 136.553776 113.035286 
L 136.878755 114.543479 
L 137.203735 112.841928 
L 137.853694 112.300525 
L 138.178673 112.609898 
L 138.503653 112.687241 
L 138.828632 111.836465 
L 139.153612 114.427465 
L 139.478591 111.797796 
L 139.803571 111.836465 
L 140.12855 112.377869 
L 140.45353 113.189973 
L 140.778509 112.107168 
L 141.103489 112.261854 
L 141.428468 117.675882 
L 141.753448 114.852852 
L 142.078428 113.305988 
L 142.403407 110.869676 
L 142.728387 113.422003 
L 143.053366 112.068495 
L 143.703325 111.295062 
L 144.028305 111.101705 
L 144.353284 111.063034 
L 144.678264 110.831003 
L 145.003243 111.411079 
L 145.328223 110.792333 
L 145.653202 111.179049 
L 145.978182 110.908347 
L 146.303161 111.333735 
L 146.628141 112.261854 
L 146.95312 110.947019 
L 147.2781 110.792332 
L 147.603079 110.908347 
L 147.928059 110.096244 
L 148.253038 110.521631 
L 148.578018 113.344659 
L 148.902998 110.366945 
L 149.227977 111.875137 
L 149.552957 110.637644 
L 150.202916 110.366945 
L 150.527895 111.836466 
L 150.852875 108.936096 
L 151.177854 110.831003 
L 151.502834 111.21772 
L 151.827813 110.096242 
L 152.152793 109.941558 
L 152.477772 110.366945 
L 152.802752 109.748198 
L 153.127731 113.11263 
L 153.452711 109.477496 
L 153.77769 110.908347 
L 154.10267 109.7482 
L 154.427649 110.366945 
L 154.752629 110.444288 
L 155.077609 109.670856 
L 155.402588 110.598975 
L 155.727568 110.212258 
L 156.052547 110.560303 
L 156.377527 112.377869 
L 156.702506 109.593513 
L 157.027486 109.632184 
L 157.352465 109.864212 
L 157.677445 109.670856 
L 158.002424 110.134914 
L 158.327404 109.284139 
L 158.652383 109.052109 
L 158.977363 110.018901 
L 159.302342 111.68178 
L 159.627322 109.090782 
L 159.952301 109.013438 
L 160.277281 109.593511 
L 160.60226 109.052109 
L 160.92724 110.637646 
L 161.252219 108.974766 
L 161.577199 109.322812 
L 161.902179 108.858752 
L 162.227158 109.052109 
L 162.552138 112.339197 
L 163.202097 108.704065 
L 163.527076 110.328273 
L 163.852056 109.206796 
L 164.177035 109.013439 
L 164.502015 110.328272 
L 164.826994 108.433364 
L 165.151974 109.168125 
L 165.476953 108.394693 
L 165.801933 110.869676 
L 166.776871 108.085321 
L 167.101851 108.82008 
L 167.42683 110.25093 
L 167.75181 107.234544 
L 168.07679 108.394692 
L 168.401769 107.969305 
L 168.726749 108.317349 
L 169.051728 108.974767 
L 169.701687 107.698604 
L 170.026667 109.284139 
L 170.351646 108.472036 
L 170.676626 110.98569 
L 171.001605 108.240006 
L 171.651564 109.902885 
L 171.976544 107.505245 
L 172.301523 107.427902 
L 172.626503 108.317349 
L 172.951482 108.781409 
L 173.601441 108.046647 
L 173.926421 108.046648 
L 174.2514 108.433364 
L 174.57638 107.62126 
L 174.90136 108.046647 
L 175.226339 107.002515 
L 175.876298 107.891962 
L 176.201278 108.82008 
L 176.526257 107.814618 
L 177.176216 107.273215 
L 177.501196 107.814618 
L 177.826175 107.85329 
L 178.476134 107.389231 
L 178.801114 107.659932 
L 179.126093 108.085319 
L 179.451073 107.273216 
L 179.776052 108.162663 
L 180.101032 107.311887 
L 180.426011 107.62126 
L 180.750991 109.980228 
L 181.40095 106.693142 
L 181.72593 107.62126 
L 182.050909 107.543918 
L 182.375889 107.350559 
L 182.700868 107.930634 
L 183.025848 109.168125 
L 183.350827 109.090781 
L 183.675807 107.002515 
L 184.000786 108.240005 
L 184.325766 106.229082 
L 184.650745 106.770485 
L 184.975725 107.969305 
L 185.300704 106.731813 
L 185.625684 106.15174 
L 185.950663 108.317349 
L 186.275643 106.229083 
L 186.600622 106.461112 
L 186.925602 107.505246 
L 187.250581 107.157201 
L 187.575561 107.273216 
L 187.900541 108.240006 
L 188.22552 106.461111 
L 188.5505 106.422441 
L 188.875479 108.510707 
L 189.200459 109.322811 
L 189.525438 106.19041 
L 189.850418 106.693142 
L 190.175397 106.6158 
L 190.500377 106.306426 
L 190.825356 106.306425 
L 191.150336 108.356021 
L 191.475315 107.273216 
L 191.800295 107.621261 
L 192.125274 107.234544 
L 192.450254 106.113067 
L 192.775233 107.427903 
L 193.100213 107.582588 
L 193.425192 106.809157 
L 193.750172 109.438826 
L 194.075152 110.444287 
L 194.400131 107.853291 
L 194.725111 106.8865 
L 195.05009 107.543917 
L 195.37507 105.455652 
L 196.025029 106.963843 
L 196.350008 105.378305 
L 196.674988 105.803694 
L 196.999967 105.300964 
L 197.974906 108.278679 
L 198.299885 106.035724 
L 198.624865 106.422441 
L 199.274824 107.659932 
L 199.924783 105.91971 
L 200.249762 106.461112 
L 200.574742 105.45565 
L 200.899722 105.45565 
L 201.224701 106.190412 
L 201.549681 105.803693 
L 201.87466 108.549379 
L 202.19964 104.875576 
L 202.524619 105.068934 
L 202.849599 105.532993 
L 203.174578 104.798232 
L 203.499558 105.997053 
L 203.824537 104.643546 
L 204.149517 106.035725 
L 204.474496 105.494322 
L 204.799476 105.649008 
L 205.124455 105.339635 
L 205.449435 105.339635 
L 205.774414 105.223621 
L 206.424373 106.074397 
L 206.749353 105.765024 
L 207.724292 103.7541 
L 208.049271 104.218159 
L 208.374251 104.450188 
L 208.69923 104.914247 
L 209.02421 105.842367 
L 209.349189 105.610336 
L 209.674169 105.532993 
L 209.999148 105.107605 
L 210.324128 104.256829 
L 210.974087 106.963843 
L 211.299066 104.643545 
L 211.949025 105.881038 
L 212.274005 104.914248 
L 212.598984 104.643545 
L 212.923964 107.311888 
L 213.248943 105.030261 
L 213.573923 104.48886 
L 213.898903 104.643545 
L 214.223882 105.45565 
L 214.548862 104.720888 
L 214.873841 109.400155 
L 215.198821 105.107606 
L 215.5238 105.416978 
L 215.84878 104.0248 
L 216.173759 103.483396 
L 216.823718 105.262292 
L 217.148698 105.107605 
L 217.473677 104.527531 
L 217.798657 104.682218 
L 218.123636 103.908784 
L 218.448616 104.759561 
L 218.773595 105.068933 
L 219.098575 103.715427 
L 219.423554 105.030262 
L 220.073514 104.759561 
L 220.398493 105.300963 
L 221.048452 103.908784 
L 221.373432 105.68768 
L 221.698411 103.79277 
L 222.023391 104.256829 
L 222.34837 107.041188 
L 222.67335 104.720889 
L 222.998329 104.759561 
L 223.323309 104.256829 
L 223.973268 105.146277 
L 224.298247 105.919709 
L 224.948206 104.140816 
L 225.273186 106.19041 
L 225.598165 104.411516 
L 225.923145 104.488859 
L 226.248124 104.720889 
L 226.573104 105.958381 
L 226.898084 106.538456 
L 227.223063 103.831443 
L 227.548043 103.251368 
L 227.873022 104.643546 
L 228.198002 103.212696 
L 228.522981 103.599412 
L 228.847961 103.522068 
L 229.17294 103.79277 
L 229.49792 108.201336 
L 229.822899 103.870113 
L 230.472858 104.991591 
L 230.797838 103.986128 
L 231.122817 104.682218 
L 231.447797 103.638084 
L 231.772776 103.599413 
L 232.097756 104.527531 
L 232.422735 103.831442 
L 232.747715 103.676754 
L 233.072695 104.875575 
L 233.397674 104.295501 
L 233.722654 104.218159 
L 234.047633 104.411514 
L 234.372613 104.334173 
L 235.022572 103.638085 
L 235.347551 104.179485 
L 235.672531 103.947457 
L 235.99751 104.527531 
L 236.32249 103.715427 
L 236.647469 103.754098 
L 236.972449 105.107606 
L 237.297428 103.638084 
L 237.947387 104.218158 
L 238.272367 106.538455 
L 238.597346 104.256829 
L 238.922326 103.444725 
L 239.247305 104.218157 
L 239.897265 102.516606 
L 240.222244 104.256829 
L 240.547224 102.864651 
L 240.872203 106.306426 
L 241.197183 103.174025 
L 241.522162 103.406054 
L 241.847142 103.986128 
L 242.172121 103.715426 
L 242.497101 102.903322 
L 242.82208 102.787309 
L 243.14706 106.345097 
L 243.472039 103.986128 
L 244.121998 102.748637 
L 244.446978 103.444725 
L 244.771957 102.980666 
L 245.096937 104.334172 
L 245.421916 103.483397 
L 245.746896 102.980666 
L 246.071876 103.638084 
L 246.396855 102.864651 
L 246.721835 104.140814 
L 247.046814 104.06347 
L 247.371794 103.444725 
L 247.696773 104.411515 
L 248.021753 102.864651 
L 248.346732 102.477936 
L 248.671712 103.367383 
L 248.996691 104.604874 
L 249.321671 103.251367 
L 249.64665 102.40059 
L 249.97163 102.168561 
L 250.296609 103.019337 
L 250.621589 103.135353 
L 250.946568 103.599413 
L 251.271548 103.406055 
L 251.596527 101.936533 
L 251.921507 102.439263 
L 252.246486 102.245906 
L 252.571466 102.284577 
L 252.896446 103.058009 
L 253.221425 102.671293 
L 253.546405 102.82598 
L 253.871384 102.709965 
L 254.196364 105.223619 
L 254.521343 102.671293 
L 254.846323 103.135351 
L 255.171302 103.174024 
L 255.821261 102.82598 
L 256.146241 103.444725 
L 256.47122 103.212696 
L 256.7962 102.323248 
L 257.121179 102.980666 
L 257.446159 102.748638 
L 257.771138 102.284577 
L 258.096118 103.676754 
L 258.421097 101.820517 
L 258.746077 102.671292 
L 259.071057 107.195872 
L 259.396036 103.019337 
L 259.721016 102.129891 
L 260.045995 101.588488 
L 260.370975 102.593949 
L 260.695954 101.704502 
L 261.020934 102.12989 
L 261.345913 103.251367 
L 261.995872 101.472473 
L 262.320852 102.825979 
L 262.645831 102.980666 
L 262.970811 105.146277 
L 263.62077 102.787307 
L 263.945749 103.174024 
L 264.270729 103.05801 
L 264.595708 102.052547 
L 264.920688 101.588487 
L 265.245667 102.361919 
L 265.570647 102.555278 
L 265.895627 103.135352 
L 266.220606 101.897861 
L 266.545586 102.091219 
L 266.870565 103.135352 
L 267.195545 103.56074 
L 267.520524 102.091217 
L 267.845504 102.671292 
L 268.170483 102.825978 
L 268.495463 102.787308 
L 268.820442 101.704501 
L 269.145422 101.975204 
L 269.470401 102.903323 
L 269.795381 102.439264 
L 270.12036 103.096681 
L 270.44534 102.593949 
L 270.770319 102.748636 
L 271.095299 101.820518 
L 271.420278 101.356457 
L 271.745258 102.091217 
L 272.070238 102.091218 
L 272.395217 103.32871 
L 272.720197 101.897861 
L 273.045176 102.12989 
L 273.370156 101.62716 
L 273.695135 101.85919 
L 274.020115 101.317786 
L 274.345094 101.781846 
L 274.670074 101.743175 
L 274.995053 103.328711 
L 275.320033 102.709965 
L 275.645012 102.400593 
L 275.969992 101.781845 
L 276.294971 102.32325 
L 276.619951 103.444725 
L 276.94493 102.864651 
L 277.26991 101.743174 
L 277.594889 101.743175 
L 277.919869 100.969741 
L 278.244848 102.439263 
L 278.569828 101.936531 
L 278.894808 102.168562 
L 279.219787 101.588488 
L 279.544767 105.455651 
L 279.869746 102.59395 
L 280.194726 101.472473 
L 280.519705 101.511144 
L 280.844685 101.433802 
L 281.494644 103.522068 
L 281.819623 102.052546 
L 282.144603 102.36192 
L 282.469582 102.245906 
L 282.794562 101.356457 
L 283.119541 102.593949 
L 283.7695 101.1631 
L 284.09448 101.975203 
L 284.419459 105.068933 
L 285.069419 100.737712 
L 285.394398 101.66583 
L 285.719378 100.815056 
L 286.369337 101.936533 
L 286.694316 102.013875 
L 287.019296 101.279114 
L 287.669255 101.279114 
L 288.319214 104.411516 
L 288.644193 102.129891 
L 289.619132 101.588487 
L 289.944111 102.439264 
L 290.269091 100.931069 
L 290.91905 103.406054 
L 291.569009 101.395128 
L 292.218968 104.836903 
L 292.543948 101.085756 
L 292.868927 102.052547 
L 293.193907 101.317787 
L 293.518886 101.008413 
L 293.843866 101.85919 
L 294.168845 101.472474 
L 294.493825 102.36192 
L 294.818804 101.008413 
L 295.143784 101.163099 
L 295.468763 100.815055 
L 295.793743 103.019338 
L 296.118722 101.511145 
L 296.443702 101.936533 
L 296.768681 101.085755 
L 297.093661 101.356457 
L 297.41864 100.69904 
L 297.74362 102.748636 
L 298.0686 101.12443 
L 298.393579 101.549816 
L 298.718559 101.433801 
L 299.043538 101.627159 
L 299.368518 101.511144 
L 300.018477 101.008413 
L 300.343456 101.008413 
L 300.668436 101.549816 
L 300.993415 101.39513 
L 301.318395 102.013875 
L 301.643374 101.356458 
L 301.968354 101.008413 
L 302.293333 101.511144 
L 302.618313 104.75956 
L 302.943292 102.12989 
L 303.268272 101.008414 
L 303.593251 102.052548 
L 303.918231 101.201771 
L 304.24321 104.488859 
L 304.56819 102.36192 
L 304.89317 101.627158 
L 305.218149 101.4338 
L 305.543129 102.245905 
L 305.868108 101.704503 
L 306.193088 100.157637 
L 306.518067 101.627159 
L 306.843047 102.555279 
L 307.168026 101.588488 
L 307.493006 102.400592 
L 307.817985 101.356458 
L 308.142965 102.632621 
L 308.467944 100.815054 
L 308.792924 102.36192 
L 309.117903 102.864651 
L 309.442883 101.317786 
L 309.767862 101.356457 
L 310.092842 102.12989 
L 310.742801 100.737713 
L 311.39276 101.859191 
L 311.71774 101.66583 
L 312.042719 100.544354 
L 312.367699 101.240443 
L 312.692678 101.085756 
L 313.017658 101.62716 
L 313.342637 100.853726 
L 313.667617 102.091218 
L 313.992596 101.433801 
L 314.317576 101.472473 
L 314.642555 101.781846 
L 314.967535 101.433802 
L 315.292514 101.356457 
L 315.617494 102.709964 
L 315.942473 100.892398 
L 316.267453 102.59395 
L 316.592432 102.825979 
L 316.917412 102.284577 
L 317.242391 100.621696 
L 317.567371 100.544353 
L 317.892351 101.39513 
L 318.21733 101.1631 
L 318.54231 101.859189 
L 318.867289 100.428337 
L 319.192269 101.356458 
L 319.517248 100.815057 
L 319.842228 103.444725 
L 320.167207 100.118966 
L 320.492187 100.583025 
L 320.817166 101.356459 
L 321.142146 100.69904 
L 321.467125 103.019336 
L 321.792105 100.273652 
L 322.117084 101.317787 
L 322.767043 100.776383 
L 323.092023 101.317787 
L 323.417002 101.317787 
L 323.741982 102.477934 
L 324.066962 101.395131 
L 324.391941 103.135352 
L 324.716921 101.356458 
L 325.0419 100.931069 
L 325.691859 101.781846 
L 326.016839 101.781847 
L 326.341818 100.621696 
L 326.666798 101.1631 
L 326.991777 100.853727 
L 327.316757 101.201771 
L 327.641736 100.118966 
L 328.291695 100.93107 
L 328.616675 100.93107 
L 328.941654 101.472473 
L 329.266634 100.428338 
L 329.591613 100.46701 
L 329.916593 100.389666 
L 330.241572 100.776384 
L 330.566552 99.925608 
L 330.891532 100.969742 
L 331.216511 100.892399 
L 331.541491 101.743175 
L 331.86647 101.975204 
L 332.516429 100.853728 
L 332.841409 100.69904 
L 333.166388 101.085757 
L 333.491368 100.467011 
L 333.816347 101.008414 
L 334.141327 101.047085 
L 334.466306 101.39513 
L 334.791286 102.439263 
L 335.116265 100.931071 
L 335.441245 100.19631 
L 335.766224 99.809593 
L 336.091204 100.776384 
L 336.416183 100.737712 
L 336.741163 104.52753 
L 337.066143 101.12443 
L 337.391122 99.538891 
L 337.716102 101.859189 
L 338.041081 100.389668 
L 338.366061 100.776383 
L 338.69104 100.041623 
L 339.340999 100.544353 
L 339.665979 101.1631 
L 339.990958 100.389666 
L 340.315938 100.157637 
L 340.640917 100.660369 
L 340.965897 100.544355 
L 341.290876 99.809595 
L 341.615856 100.815055 
L 341.940835 100.853727 
L 342.265815 100.157638 
L 342.590794 99.809593 
L 342.915774 101.936533 
L 343.240753 100.389667 
L 343.565733 99.809592 
L 343.890713 101.975203 
L 344.215692 100.273653 
L 344.540672 100.080294 
L 344.865651 102.787307 
L 345.190631 100.350995 
L 345.51561 100.428339 
L 345.84059 100.002951 
L 346.165569 101.627159 
L 346.490549 100.544354 
L 347.140508 100.350995 
L 347.465487 99.268189 
L 347.790467 102.593949 
L 348.115446 99.538891 
L 348.440426 100.389666 
L 349.090385 100.969741 
L 349.415364 99.848266 
L 349.740344 100.776383 
L 350.065324 100.350996 
L 350.390303 100.389666 
L 350.715283 101.588488 
L 351.040262 99.616234 
L 351.365242 100.428339 
L 351.690221 99.848266 
L 352.015201 100.815056 
L 352.66516 99.577563 
L 352.990139 98.920144 
L 353.315119 100.776383 
L 353.640098 101.897861 
L 353.965078 100.350994 
L 354.290057 100.273653 
L 354.615037 99.732249 
L 355.264996 101.279114 
L 355.589975 100.815056 
L 355.914955 100.002952 
L 356.239934 100.312324 
L 356.564914 99.96428 
L 356.889894 99.964279 
L 357.214873 99.770921 
L 357.539853 99.770921 
L 357.864832 100.853726 
L 358.189812 99.809593 
L 358.514791 99.848266 
L 358.839771 100.42834 
L 359.16475 99.229516 
L 359.48973 101.549816 
L 359.814709 100.350996 
L 360.139689 99.693578 
L 360.464668 100.157637 
L 360.789648 99.500221 
L 361.114627 99.964278 
L 361.439607 99.964279 
L 361.764586 100.46701 
L 362.089566 99.77092 
L 362.414545 99.809592 
L 362.739525 100.041622 
L 363.064505 100.080294 
L 363.389484 101.008414 
L 363.714464 99.345532 
L 364.039443 99.03616 
L 364.364423 99.577562 
L 364.689402 100.467013 
L 365.014382 99.693577 
L 365.339361 100.118965 
L 365.664341 99.538891 
L 365.98932 99.268189 
L 366.3143 99.616236 
L 366.639279 98.958816 
L 366.964259 100.737711 
L 367.614218 99.268189 
L 367.939197 99.96428 
L 368.264177 99.461549 
L 368.589156 99.190847 
L 368.914136 99.809591 
L 369.239115 99.074832 
L 369.564095 100.969741 
L 369.889075 99.422876 
L 370.214054 99.77092 
L 370.539034 101.008413 
L 370.864013 101.511143 
L 371.188993 99.190846 
L 371.513972 100.389666 
L 371.838952 99.074832 
L 372.163931 100.583025 
L 372.488911 100.273653 
L 372.81389 99.03616 
L 373.13887 98.997488 
L 373.788829 100.969742 
L 374.113808 99.616234 
L 374.438788 99.113504 
L 374.763767 99.538891 
L 375.088747 99.770921 
L 375.413726 98.881474 
L 375.738706 99.92561 
L 376.063686 99.654905 
L 376.388665 101.433801 
L 376.713645 98.881473 
L 377.038624 100.621697 
L 377.363604 100.080294 
L 377.688583 99.268191 
L 378.013563 99.538891 
L 378.988501 99.500219 
L 379.313481 99.074832 
L 379.63846 99.886936 
L 379.96344 98.688115 
L 380.288419 99.886936 
L 380.613399 99.848264 
L 380.938378 100.196309 
L 381.263358 98.80413 
L 381.588337 99.964279 
L 381.913317 98.804131 
L 382.238296 99.384204 
L 382.888256 99.693579 
L 383.213235 101.047084 
L 384.188174 98.224056 
L 384.513153 100.621697 
L 385.163112 98.842802 
L 385.488092 100.621698 
L 385.813071 99.925608 
L 386.138051 100.46701 
L 386.46303 99.190847 
L 386.78801 99.616235 
L 387.112989 99.577563 
L 387.437969 99.732249 
L 387.762948 99.152176 
L 388.087928 99.345534 
L 388.412907 99.26819 
L 388.737887 99.03616 
L 389.712826 100.273653 
L 390.037805 98.688115 
L 390.362785 98.842802 
L 390.687764 103.676756 
L 391.012744 98.533429 
L 391.337723 99.461547 
L 391.662703 99.848264 
L 391.987682 98.649444 
L 392.637641 100.350997 
L 392.962621 99.306862 
L 393.2876 100.19631 
L 393.61258 99.500219 
L 393.937559 99.461548 
L 394.262539 100.002952 
L 394.912498 98.997488 
L 395.237477 98.804131 
L 395.562457 99.345533 
L 395.887437 98.06937 
L 396.537396 98.533428 
L 396.862375 99.886937 
L 397.187355 99.152176 
L 397.512334 99.190848 
L 397.837314 99.538891 
L 398.162293 100.853726 
L 398.487273 99.306861 
L 398.487273 99.306861 
" style="fill:none;stroke:#ff7f0e;stroke-linecap:square;stroke-width:1.5;"/>
   </g>
   <g id="patch_3">
    <path d="M 57.6 307.584 
L 57.6 41.472 
" style="fill:none;stroke:#000000;stroke-linecap:square;stroke-linejoin:miter;stroke-width:0.8;"/>
   </g>
   <g id="patch_4">
    <path d="M 414.72 307.584 
L 414.72 41.472 
" style="fill:none;stroke:#000000;stroke-linecap:square;stroke-linejoin:miter;stroke-width:0.8;"/>
   </g>
   <g id="patch_5">
    <path d="M 57.6 307.584 
L 414.72 307.584 
" style="fill:none;stroke:#000000;stroke-linecap:square;stroke-linejoin:miter;stroke-width:0.8;"/>
   </g>
   <g id="patch_6">
    <path d="M 57.6 41.472 
L 414.72 41.472 
" style="fill:none;stroke:#000000;stroke-linecap:square;stroke-linejoin:miter;stroke-width:0.8;"/>
   </g>
   <g id="text_15">
    <!-- model accuracy -->
    <defs>
     <path d="M 52 44.1875 
Q 55.375 50.25 60.0625 53.125 
Q 64.75 56 71.09375 56 
Q 79.640625 56 84.28125 50.015625 
Q 88.921875 44.046875 88.921875 33.015625 
L 88.921875 0 
L 79.890625 0 
L 79.890625 32.71875 
Q 79.890625 40.578125 77.09375 44.375 
Q 74.3125 48.1875 68.609375 48.1875 
Q 61.625 48.1875 57.5625 43.546875 
Q 53.515625 38.921875 53.515625 30.90625 
L 53.515625 0 
L 44.484375 0 
L 44.484375 32.71875 
Q 44.484375 40.625 41.703125 44.40625 
Q 38.921875 48.1875 33.109375 48.1875 
Q 26.21875 48.1875 22.15625 43.53125 
Q 18.109375 38.875 18.109375 30.90625 
L 18.109375 0 
L 9.078125 0 
L 9.078125 54.6875 
L 18.109375 54.6875 
L 18.109375 46.1875 
Q 21.1875 51.21875 25.484375 53.609375 
Q 29.78125 56 35.6875 56 
Q 41.65625 56 45.828125 52.96875 
Q 50 49.953125 52 44.1875 
z
" id="DejaVuSans-6d"/>
     <path d="M 45.40625 46.390625 
L 45.40625 75.984375 
L 54.390625 75.984375 
L 54.390625 0 
L 45.40625 0 
L 45.40625 8.203125 
Q 42.578125 3.328125 38.25 0.953125 
Q 33.9375 -1.421875 27.875 -1.421875 
Q 17.96875 -1.421875 11.734375 6.484375 
Q 5.515625 14.40625 5.515625 27.296875 
Q 5.515625 40.1875 11.734375 48.09375 
Q 17.96875 56 27.875 56 
Q 33.9375 56 38.25 53.625 
Q 42.578125 51.265625 45.40625 46.390625 
z
M 14.796875 27.296875 
Q 14.796875 17.390625 18.875 11.75 
Q 22.953125 6.109375 30.078125 6.109375 
Q 37.203125 6.109375 41.296875 11.75 
Q 45.40625 17.390625 45.40625 27.296875 
Q 45.40625 37.203125 41.296875 42.84375 
Q 37.203125 48.484375 30.078125 48.484375 
Q 22.953125 48.484375 18.875 42.84375 
Q 14.796875 37.203125 14.796875 27.296875 
z
" id="DejaVuSans-64"/>
     <path d="M 9.421875 75.984375 
L 18.40625 75.984375 
L 18.40625 0 
L 9.421875 0 
z
" id="DejaVuSans-6c"/>
     <path id="DejaVuSans-20"/>
    </defs>
    <g transform="translate(188.498437 35.472)scale(0.12 -0.12)">
     <use xlink:href="#DejaVuSans-6d"/>
     <use x="97.412109" xlink:href="#DejaVuSans-6f"/>
     <use x="158.59375" xlink:href="#DejaVuSans-64"/>
     <use x="222.070312" xlink:href="#DejaVuSans-65"/>
     <use x="283.59375" xlink:href="#DejaVuSans-6c"/>
     <use x="311.376953" xlink:href="#DejaVuSans-20"/>
     <use x="343.164062" xlink:href="#DejaVuSans-61"/>
     <use x="404.443359" xlink:href="#DejaVuSans-63"/>
     <use x="459.423828" xlink:href="#DejaVuSans-63"/>
     <use x="514.404297" xlink:href="#DejaVuSans-75"/>
     <use x="577.783203" xlink:href="#DejaVuSans-72"/>
     <use x="618.896484" xlink:href="#DejaVuSans-61"/>
     <use x="680.175781" xlink:href="#DejaVuSans-63"/>
     <use x="735.15625" xlink:href="#DejaVuSans-79"/>
    </g>
   </g>
   <g id="legend_1">
    <g id="patch_7">
     <path d="M 64.6 78.82825 
L 119.875 78.82825 
Q 121.875 78.82825 121.875 76.82825 
L 121.875 48.472 
Q 121.875 46.472 119.875 46.472 
L 64.6 46.472 
Q 62.6 46.472 62.6 48.472 
L 62.6 76.82825 
Q 62.6 78.82825 64.6 78.82825 
z
" style="fill:#ffffff;opacity:0.8;stroke:#cccccc;stroke-linejoin:miter;"/>
    </g>
    <g id="line2d_15">
     <path d="M 66.6 54.570437 
L 86.6 54.570437 
" style="fill:none;stroke:#1f77b4;stroke-linecap:square;stroke-width:1.5;"/>
    </g>
    <g id="line2d_16"/>
    <g id="text_16">
     <!-- train -->
     <defs>
      <path d="M 18.3125 70.21875 
L 18.3125 54.6875 
L 36.8125 54.6875 
L 36.8125 47.703125 
L 18.3125 47.703125 
L 18.3125 18.015625 
Q 18.3125 11.328125 20.140625 9.421875 
Q 21.96875 7.515625 27.59375 7.515625 
L 36.8125 7.515625 
L 36.8125 0 
L 27.59375 0 
Q 17.1875 0 13.234375 3.875 
Q 9.28125 7.765625 9.28125 18.015625 
L 9.28125 47.703125 
L 2.6875 47.703125 
L 2.6875 54.6875 
L 9.28125 54.6875 
L 9.28125 70.21875 
z
" id="DejaVuSans-74"/>
      <path d="M 9.421875 54.6875 
L 18.40625 54.6875 
L 18.40625 0 
L 9.421875 0 
z
M 9.421875 75.984375 
L 18.40625 75.984375 
L 18.40625 64.59375 
L 9.421875 64.59375 
z
" id="DejaVuSans-69"/>
      <path d="M 54.890625 33.015625 
L 54.890625 0 
L 45.90625 0 
L 45.90625 32.71875 
Q 45.90625 40.484375 42.875 44.328125 
Q 39.84375 48.1875 33.796875 48.1875 
Q 26.515625 48.1875 22.3125 43.546875 
Q 18.109375 38.921875 18.109375 30.90625 
L 18.109375 0 
L 9.078125 0 
L 9.078125 54.6875 
L 18.109375 54.6875 
L 18.109375 46.1875 
Q 21.34375 51.125 25.703125 53.5625 
Q 30.078125 56 35.796875 56 
Q 45.21875 56 50.046875 50.171875 
Q 54.890625 44.34375 54.890625 33.015625 
z
" id="DejaVuSans-6e"/>
     </defs>
     <g transform="translate(94.6 58.070437)scale(0.1 -0.1)">
      <use xlink:href="#DejaVuSans-74"/>
      <use x="39.208984" xlink:href="#DejaVuSans-72"/>
      <use x="80.322266" xlink:href="#DejaVuSans-61"/>
      <use x="141.601562" xlink:href="#DejaVuSans-69"/>
      <use x="169.384766" xlink:href="#DejaVuSans-6e"/>
     </g>
    </g>
    <g id="line2d_17">
     <path d="M 66.6 69.248562 
L 86.6 69.248562 
" style="fill:none;stroke:#ff7f0e;stroke-linecap:square;stroke-width:1.5;"/>
    </g>
    <g id="line2d_18"/>
    <g id="text_17">
     <!-- test -->
     <defs>
      <path d="M 44.28125 53.078125 
L 44.28125 44.578125 
Q 40.484375 46.53125 36.375 47.5 
Q 32.28125 48.484375 27.875 48.484375 
Q 21.1875 48.484375 17.84375 46.4375 
Q 14.5 44.390625 14.5 40.28125 
Q 14.5 37.15625 16.890625 35.375 
Q 19.28125 33.59375 26.515625 31.984375 
L 29.59375 31.296875 
Q 39.15625 29.25 43.1875 25.515625 
Q 47.21875 21.78125 47.21875 15.09375 
Q 47.21875 7.46875 41.1875 3.015625 
Q 35.15625 -1.421875 24.609375 -1.421875 
Q 20.21875 -1.421875 15.453125 -0.5625 
Q 10.6875 0.296875 5.421875 2 
L 5.421875 11.28125 
Q 10.40625 8.6875 15.234375 7.390625 
Q 20.0625 6.109375 24.8125 6.109375 
Q 31.15625 6.109375 34.5625 8.28125 
Q 37.984375 10.453125 37.984375 14.40625 
Q 37.984375 18.0625 35.515625 20.015625 
Q 33.0625 21.96875 24.703125 23.78125 
L 21.578125 24.515625 
Q 13.234375 26.265625 9.515625 29.90625 
Q 5.8125 33.546875 5.8125 39.890625 
Q 5.8125 47.609375 11.28125 51.796875 
Q 16.75 56 26.8125 56 
Q 31.78125 56 36.171875 55.265625 
Q 40.578125 54.546875 44.28125 53.078125 
z
" id="DejaVuSans-73"/>
     </defs>
     <g transform="translate(94.6 72.748562)scale(0.1 -0.1)">
      <use xlink:href="#DejaVuSans-74"/>
      <use x="39.208984" xlink:href="#DejaVuSans-65"/>
      <use x="100.732422" xlink:href="#DejaVuSans-73"/>
      <use x="152.832031" xlink:href="#DejaVuSans-74"/>
     </g>
    </g>
   </g>
  </g>
 </g>
 <defs>
  <clipPath id="p1ceeffa41a">
   <rect height="266.112" width="357.12" x="57.6" y="41.472"/>
  </clipPath>
 </defs>
</svg>
