<?xml version="1.0" encoding="utf-8" standalone="no"?>
<!DOCTYPE svg PUBLIC "-//W3C//DTD SVG 1.1//EN"
  "http://www.w3.org/Graphics/SVG/1.1/DTD/svg11.dtd">
<!-- Created with matplotlib (http://matplotlib.org/) -->
<svg height="345.6pt" version="1.1" viewBox="0 0 460.8 345.6" width="460.8pt" xmlns="http://www.w3.org/2000/svg" xmlns:xlink="http://www.w3.org/1999/xlink">
 <defs>
  <style type="text/css">
*{stroke-linecap:butt;stroke-linejoin:round;}
  </style>
 </defs>
 <g id="figure_1">
  <g id="patch_1">
   <path d="M 0 345.6 
L 460.8 345.6 
L 460.8 0 
L 0 0 
z
" style="fill:#ffffff;"/>
  </g>
  <g id="axes_1">
   <g id="patch_2">
    <path d="M 57.6 307.584 
L 414.72 307.584 
L 414.72 41.472 
L 57.6 41.472 
z
" style="fill:#ffffff;"/>
   </g>
   <g id="matplotlib.axis_1">
    <g id="xtick_1">
     <g id="line2d_1">
      <defs>
       <path d="M 0 0 
L 0 3.5 
" id="mebb12d647b" style="stroke:#000000;stroke-width:0.8;"/>
      </defs>
      <g>
       <use style="stroke:#000000;stroke-width:0.8;" x="73.832727" xlink:href="#mebb12d647b" y="307.584"/>
      </g>
     </g>
     <g id="text_1">
      <!-- 0 -->
      <defs>
       <path d="M 31.78125 66.40625 
Q 24.171875 66.40625 20.328125 58.90625 
Q 16.5 51.421875 16.5 36.375 
Q 16.5 21.390625 20.328125 13.890625 
Q 24.171875 6.390625 31.78125 6.390625 
Q 39.453125 6.390625 43.28125 13.890625 
Q 47.125 21.390625 47.125 36.375 
Q 47.125 51.421875 43.28125 58.90625 
Q 39.453125 66.40625 31.78125 66.40625 
z
M 31.78125 74.21875 
Q 44.046875 74.21875 50.515625 64.515625 
Q 56.984375 54.828125 56.984375 36.375 
Q 56.984375 17.96875 50.515625 8.265625 
Q 44.046875 -1.421875 31.78125 -1.421875 
Q 19.53125 -1.421875 13.0625 8.265625 
Q 6.59375 17.96875 6.59375 36.375 
Q 6.59375 54.828125 13.0625 64.515625 
Q 19.53125 74.21875 31.78125 74.21875 
z
" id="DejaVuSans-30"/>
      </defs>
      <g transform="translate(70.651477 322.182437)scale(0.1 -0.1)">
       <use xlink:href="#DejaVuSans-30"/>
      </g>
     </g>
    </g>
    <g id="xtick_2">
     <g id="line2d_2">
      <g>
       <use style="stroke:#000000;stroke-width:0.8;" x="138.828632" xlink:href="#mebb12d647b" y="307.584"/>
      </g>
     </g>
     <g id="text_2">
      <!-- 200 -->
      <defs>
       <path d="M 19.1875 8.296875 
L 53.609375 8.296875 
L 53.609375 0 
L 7.328125 0 
L 7.328125 8.296875 
Q 12.9375 14.109375 22.625 23.890625 
Q 32.328125 33.6875 34.8125 36.53125 
Q 39.546875 41.84375 41.421875 45.53125 
Q 43.3125 49.21875 43.3125 52.78125 
Q 43.3125 58.59375 39.234375 62.25 
Q 35.15625 65.921875 28.609375 65.921875 
Q 23.96875 65.921875 18.8125 64.3125 
Q 13.671875 62.703125 7.8125 59.421875 
L 7.8125 69.390625 
Q 13.765625 71.78125 18.9375 73 
Q 24.125 74.21875 28.421875 74.21875 
Q 39.75 74.21875 46.484375 68.546875 
Q 53.21875 62.890625 53.21875 53.421875 
Q 53.21875 48.921875 51.53125 44.890625 
Q 49.859375 40.875 45.40625 35.40625 
Q 44.1875 33.984375 37.640625 27.21875 
Q 31.109375 20.453125 19.1875 8.296875 
z
" id="DejaVuSans-32"/>
      </defs>
      <g transform="translate(129.284882 322.182437)scale(0.1 -0.1)">
       <use xlink:href="#DejaVuSans-32"/>
       <use x="63.623047" xlink:href="#DejaVuSans-30"/>
       <use x="127.246094" xlink:href="#DejaVuSans-30"/>
      </g>
     </g>
    </g>
    <g id="xtick_3">
     <g id="line2d_3">
      <g>
       <use style="stroke:#000000;stroke-width:0.8;" x="203.824537" xlink:href="#mebb12d647b" y="307.584"/>
      </g>
     </g>
     <g id="text_3">
      <!-- 400 -->
      <defs>
       <path d="M 37.796875 64.3125 
L 12.890625 25.390625 
L 37.796875 25.390625 
z
M 35.203125 72.90625 
L 47.609375 72.90625 
L 47.609375 25.390625 
L 58.015625 25.390625 
L 58.015625 17.1875 
L 47.609375 17.1875 
L 47.609375 0 
L 37.796875 0 
L 37.796875 17.1875 
L 4.890625 17.1875 
L 4.890625 26.703125 
z
" id="DejaVuSans-34"/>
      </defs>
      <g transform="translate(194.280787 322.182437)scale(0.1 -0.1)">
       <use xlink:href="#DejaVuSans-34"/>
       <use x="63.623047" xlink:href="#DejaVuSans-30"/>
       <use x="127.246094" xlink:href="#DejaVuSans-30"/>
      </g>
     </g>
    </g>
    <g id="xtick_4">
     <g id="line2d_4">
      <g>
       <use style="stroke:#000000;stroke-width:0.8;" x="268.820442" xlink:href="#mebb12d647b" y="307.584"/>
      </g>
     </g>
     <g id="text_4">
      <!-- 600 -->
      <defs>
       <path d="M 33.015625 40.375 
Q 26.375 40.375 22.484375 35.828125 
Q 18.609375 31.296875 18.609375 23.390625 
Q 18.609375 15.53125 22.484375 10.953125 
Q 26.375 6.390625 33.015625 6.390625 
Q 39.65625 6.390625 43.53125 10.953125 
Q 47.40625 15.53125 47.40625 23.390625 
Q 47.40625 31.296875 43.53125 35.828125 
Q 39.65625 40.375 33.015625 40.375 
z
M 52.59375 71.296875 
L 52.59375 62.3125 
Q 48.875 64.0625 45.09375 64.984375 
Q 41.3125 65.921875 37.59375 65.921875 
Q 27.828125 65.921875 22.671875 59.328125 
Q 17.53125 52.734375 16.796875 39.40625 
Q 19.671875 43.65625 24.015625 45.921875 
Q 28.375 48.1875 33.59375 48.1875 
Q 44.578125 48.1875 50.953125 41.515625 
Q 57.328125 34.859375 57.328125 23.390625 
Q 57.328125 12.15625 50.6875 5.359375 
Q 44.046875 -1.421875 33.015625 -1.421875 
Q 20.359375 -1.421875 13.671875 8.265625 
Q 6.984375 17.96875 6.984375 36.375 
Q 6.984375 53.65625 15.1875 63.9375 
Q 23.390625 74.21875 37.203125 74.21875 
Q 40.921875 74.21875 44.703125 73.484375 
Q 48.484375 72.75 52.59375 71.296875 
z
" id="DejaVuSans-36"/>
      </defs>
      <g transform="translate(259.276692 322.182437)scale(0.1 -0.1)">
       <use xlink:href="#DejaVuSans-36"/>
       <use x="63.623047" xlink:href="#DejaVuSans-30"/>
       <use x="127.246094" xlink:href="#DejaVuSans-30"/>
      </g>
     </g>
    </g>
    <g id="xtick_5">
     <g id="line2d_5">
      <g>
       <use style="stroke:#000000;stroke-width:0.8;" x="333.816347" xlink:href="#mebb12d647b" y="307.584"/>
      </g>
     </g>
     <g id="text_5">
      <!-- 800 -->
      <defs>
       <path d="M 31.78125 34.625 
Q 24.75 34.625 20.71875 30.859375 
Q 16.703125 27.09375 16.703125 20.515625 
Q 16.703125 13.921875 20.71875 10.15625 
Q 24.75 6.390625 31.78125 6.390625 
Q 38.8125 6.390625 42.859375 10.171875 
Q 46.921875 13.96875 46.921875 20.515625 
Q 46.921875 27.09375 42.890625 30.859375 
Q 38.875 34.625 31.78125 34.625 
z
M 21.921875 38.8125 
Q 15.578125 40.375 12.03125 44.71875 
Q 8.5 49.078125 8.5 55.328125 
Q 8.5 64.0625 14.71875 69.140625 
Q 20.953125 74.21875 31.78125 74.21875 
Q 42.671875 74.21875 48.875 69.140625 
Q 55.078125 64.0625 55.078125 55.328125 
Q 55.078125 49.078125 51.53125 44.71875 
Q 48 40.375 41.703125 38.8125 
Q 48.828125 37.15625 52.796875 32.3125 
Q 56.78125 27.484375 56.78125 20.515625 
Q 56.78125 9.90625 50.3125 4.234375 
Q 43.84375 -1.421875 31.78125 -1.421875 
Q 19.734375 -1.421875 13.25 4.234375 
Q 6.78125 9.90625 6.78125 20.515625 
Q 6.78125 27.484375 10.78125 32.3125 
Q 14.796875 37.15625 21.921875 38.8125 
z
M 18.3125 54.390625 
Q 18.3125 48.734375 21.84375 45.5625 
Q 25.390625 42.390625 31.78125 42.390625 
Q 38.140625 42.390625 41.71875 45.5625 
Q 45.3125 48.734375 45.3125 54.390625 
Q 45.3125 60.0625 41.71875 63.234375 
Q 38.140625 66.40625 31.78125 66.40625 
Q 25.390625 66.40625 21.84375 63.234375 
Q 18.3125 60.0625 18.3125 54.390625 
z
" id="DejaVuSans-38"/>
      </defs>
      <g transform="translate(324.272597 322.182437)scale(0.1 -0.1)">
       <use xlink:href="#DejaVuSans-38"/>
       <use x="63.623047" xlink:href="#DejaVuSans-30"/>
       <use x="127.246094" xlink:href="#DejaVuSans-30"/>
      </g>
     </g>
    </g>
    <g id="xtick_6">
     <g id="line2d_6">
      <g>
       <use style="stroke:#000000;stroke-width:0.8;" x="398.812252" xlink:href="#mebb12d647b" y="307.584"/>
      </g>
     </g>
     <g id="text_6">
      <!-- 1000 -->
      <defs>
       <path d="M 12.40625 8.296875 
L 28.515625 8.296875 
L 28.515625 63.921875 
L 10.984375 60.40625 
L 10.984375 69.390625 
L 28.421875 72.90625 
L 38.28125 72.90625 
L 38.28125 8.296875 
L 54.390625 8.296875 
L 54.390625 0 
L 12.40625 0 
z
" id="DejaVuSans-31"/>
      </defs>
      <g transform="translate(386.087252 322.182437)scale(0.1 -0.1)">
       <use xlink:href="#DejaVuSans-31"/>
       <use x="63.623047" xlink:href="#DejaVuSans-30"/>
       <use x="127.246094" xlink:href="#DejaVuSans-30"/>
       <use x="190.869141" xlink:href="#DejaVuSans-30"/>
      </g>
     </g>
    </g>
    <g id="text_7">
     <!-- epoch -->
     <defs>
      <path d="M 56.203125 29.59375 
L 56.203125 25.203125 
L 14.890625 25.203125 
Q 15.484375 15.921875 20.484375 11.0625 
Q 25.484375 6.203125 34.421875 6.203125 
Q 39.59375 6.203125 44.453125 7.46875 
Q 49.3125 8.734375 54.109375 11.28125 
L 54.109375 2.78125 
Q 49.265625 0.734375 44.1875 -0.34375 
Q 39.109375 -1.421875 33.890625 -1.421875 
Q 20.796875 -1.421875 13.15625 6.1875 
Q 5.515625 13.8125 5.515625 26.8125 
Q 5.515625 40.234375 12.765625 48.109375 
Q 20.015625 56 32.328125 56 
Q 43.359375 56 49.78125 48.890625 
Q 56.203125 41.796875 56.203125 29.59375 
z
M 47.21875 32.234375 
Q 47.125 39.59375 43.09375 43.984375 
Q 39.0625 48.390625 32.421875 48.390625 
Q 24.90625 48.390625 20.390625 44.140625 
Q 15.875 39.890625 15.1875 32.171875 
z
" id="DejaVuSans-65"/>
      <path d="M 18.109375 8.203125 
L 18.109375 -20.796875 
L 9.078125 -20.796875 
L 9.078125 54.6875 
L 18.109375 54.6875 
L 18.109375 46.390625 
Q 20.953125 51.265625 25.265625 53.625 
Q 29.59375 56 35.59375 56 
Q 45.5625 56 51.78125 48.09375 
Q 58.015625 40.1875 58.015625 27.296875 
Q 58.015625 14.40625 51.78125 6.484375 
Q 45.5625 -1.421875 35.59375 -1.421875 
Q 29.59375 -1.421875 25.265625 0.953125 
Q 20.953125 3.328125 18.109375 8.203125 
z
M 48.6875 27.296875 
Q 48.6875 37.203125 44.609375 42.84375 
Q 40.53125 48.484375 33.40625 48.484375 
Q 26.265625 48.484375 22.1875 42.84375 
Q 18.109375 37.203125 18.109375 27.296875 
Q 18.109375 17.390625 22.1875 11.75 
Q 26.265625 6.109375 33.40625 6.109375 
Q 40.53125 6.109375 44.609375 11.75 
Q 48.6875 17.390625 48.6875 27.296875 
z
" id="DejaVuSans-70"/>
      <path d="M 30.609375 48.390625 
Q 23.390625 48.390625 19.1875 42.75 
Q 14.984375 37.109375 14.984375 27.296875 
Q 14.984375 17.484375 19.15625 11.84375 
Q 23.34375 6.203125 30.609375 6.203125 
Q 37.796875 6.203125 41.984375 11.859375 
Q 46.1875 17.53125 46.1875 27.296875 
Q 46.1875 37.015625 41.984375 42.703125 
Q 37.796875 48.390625 30.609375 48.390625 
z
M 30.609375 56 
Q 42.328125 56 49.015625 48.375 
Q 55.71875 40.765625 55.71875 27.296875 
Q 55.71875 13.875 49.015625 6.21875 
Q 42.328125 -1.421875 30.609375 -1.421875 
Q 18.84375 -1.421875 12.171875 6.21875 
Q 5.515625 13.875 5.515625 27.296875 
Q 5.515625 40.765625 12.171875 48.375 
Q 18.84375 56 30.609375 56 
z
" id="DejaVuSans-6f"/>
      <path d="M 48.78125 52.59375 
L 48.78125 44.1875 
Q 44.96875 46.296875 41.140625 47.34375 
Q 37.3125 48.390625 33.40625 48.390625 
Q 24.65625 48.390625 19.8125 42.84375 
Q 14.984375 37.3125 14.984375 27.296875 
Q 14.984375 17.28125 19.8125 11.734375 
Q 24.65625 6.203125 33.40625 6.203125 
Q 37.3125 6.203125 41.140625 7.25 
Q 44.96875 8.296875 48.78125 10.40625 
L 48.78125 2.09375 
Q 45.015625 0.34375 40.984375 -0.53125 
Q 36.96875 -1.421875 32.421875 -1.421875 
Q 20.0625 -1.421875 12.78125 6.34375 
Q 5.515625 14.109375 5.515625 27.296875 
Q 5.515625 40.671875 12.859375 48.328125 
Q 20.21875 56 33.015625 56 
Q 37.15625 56 41.109375 55.140625 
Q 45.0625 54.296875 48.78125 52.59375 
z
" id="DejaVuSans-63"/>
      <path d="M 54.890625 33.015625 
L 54.890625 0 
L 45.90625 0 
L 45.90625 32.71875 
Q 45.90625 40.484375 42.875 44.328125 
Q 39.84375 48.1875 33.796875 48.1875 
Q 26.515625 48.1875 22.3125 43.546875 
Q 18.109375 38.921875 18.109375 30.90625 
L 18.109375 0 
L 9.078125 0 
L 9.078125 75.984375 
L 18.109375 75.984375 
L 18.109375 46.1875 
Q 21.34375 51.125 25.703125 53.5625 
Q 30.078125 56 35.796875 56 
Q 45.21875 56 50.046875 50.171875 
Q 54.890625 44.34375 54.890625 33.015625 
z
" id="DejaVuSans-68"/>
     </defs>
     <g transform="translate(220.931875 335.860562)scale(0.1 -0.1)">
      <use xlink:href="#DejaVuSans-65"/>
      <use x="61.523438" xlink:href="#DejaVuSans-70"/>
      <use x="125" xlink:href="#DejaVuSans-6f"/>
      <use x="186.181641" xlink:href="#DejaVuSans-63"/>
      <use x="241.162109" xlink:href="#DejaVuSans-68"/>
     </g>
    </g>
   </g>
   <g id="matplotlib.axis_2">
    <g id="ytick_1">
     <g id="line2d_7">
      <defs>
       <path d="M 0 0 
L -3.5 0 
" id="m1a52a465c5" style="stroke:#000000;stroke-width:0.8;"/>
      </defs>
      <g>
       <use style="stroke:#000000;stroke-width:0.8;" x="57.6" xlink:href="#m1a52a465c5" y="300.106292"/>
      </g>
     </g>
     <g id="text_8">
      <!-- 0 -->
      <g transform="translate(44.2375 303.905511)scale(0.1 -0.1)">
       <use xlink:href="#DejaVuSans-30"/>
      </g>
     </g>
    </g>
    <g id="ytick_2">
     <g id="line2d_8">
      <g>
       <use style="stroke:#000000;stroke-width:0.8;" x="57.6" xlink:href="#m1a52a465c5" y="255.790902"/>
      </g>
     </g>
     <g id="text_9">
      <!-- 1 -->
      <g transform="translate(44.2375 259.590121)scale(0.1 -0.1)">
       <use xlink:href="#DejaVuSans-31"/>
      </g>
     </g>
    </g>
    <g id="ytick_3">
     <g id="line2d_9">
      <g>
       <use style="stroke:#000000;stroke-width:0.8;" x="57.6" xlink:href="#m1a52a465c5" y="211.475513"/>
      </g>
     </g>
     <g id="text_10">
      <!-- 2 -->
      <g transform="translate(44.2375 215.274731)scale(0.1 -0.1)">
       <use xlink:href="#DejaVuSans-32"/>
      </g>
     </g>
    </g>
    <g id="ytick_4">
     <g id="line2d_10">
      <g>
       <use style="stroke:#000000;stroke-width:0.8;" x="57.6" xlink:href="#m1a52a465c5" y="167.160123"/>
      </g>
     </g>
     <g id="text_11">
      <!-- 3 -->
      <defs>
       <path d="M 40.578125 39.3125 
Q 47.65625 37.796875 51.625 33 
Q 55.609375 28.21875 55.609375 21.1875 
Q 55.609375 10.40625 48.1875 4.484375 
Q 40.765625 -1.421875 27.09375 -1.421875 
Q 22.515625 -1.421875 17.65625 -0.515625 
Q 12.796875 0.390625 7.625 2.203125 
L 7.625 11.71875 
Q 11.71875 9.328125 16.59375 8.109375 
Q 21.484375 6.890625 26.8125 6.890625 
Q 36.078125 6.890625 40.9375 10.546875 
Q 45.796875 14.203125 45.796875 21.1875 
Q 45.796875 27.640625 41.28125 31.265625 
Q 36.765625 34.90625 28.71875 34.90625 
L 20.21875 34.90625 
L 20.21875 43.015625 
L 29.109375 43.015625 
Q 36.375 43.015625 40.234375 45.921875 
Q 44.09375 48.828125 44.09375 54.296875 
Q 44.09375 59.90625 40.109375 62.90625 
Q 36.140625 65.921875 28.71875 65.921875 
Q 24.65625 65.921875 20.015625 65.03125 
Q 15.375 64.15625 9.8125 62.3125 
L 9.8125 71.09375 
Q 15.4375 72.65625 20.34375 73.4375 
Q 25.25 74.21875 29.59375 74.21875 
Q 40.828125 74.21875 47.359375 69.109375 
Q 53.90625 64.015625 53.90625 55.328125 
Q 53.90625 49.265625 50.4375 45.09375 
Q 46.96875 40.921875 40.578125 39.3125 
z
" id="DejaVuSans-33"/>
      </defs>
      <g transform="translate(44.2375 170.959342)scale(0.1 -0.1)">
       <use xlink:href="#DejaVuSans-33"/>
      </g>
     </g>
    </g>
    <g id="ytick_5">
     <g id="line2d_11">
      <g>
       <use style="stroke:#000000;stroke-width:0.8;" x="57.6" xlink:href="#m1a52a465c5" y="122.844734"/>
      </g>
     </g>
     <g id="text_12">
      <!-- 4 -->
      <g transform="translate(44.2375 126.643952)scale(0.1 -0.1)">
       <use xlink:href="#DejaVuSans-34"/>
      </g>
     </g>
    </g>
    <g id="ytick_6">
     <g id="line2d_12">
      <g>
       <use style="stroke:#000000;stroke-width:0.8;" x="57.6" xlink:href="#m1a52a465c5" y="78.529344"/>
      </g>
     </g>
     <g id="text_13">
      <!-- 5 -->
      <defs>
       <path d="M 10.796875 72.90625 
L 49.515625 72.90625 
L 49.515625 64.59375 
L 19.828125 64.59375 
L 19.828125 46.734375 
Q 21.96875 47.46875 24.109375 47.828125 
Q 26.265625 48.1875 28.421875 48.1875 
Q 40.625 48.1875 47.75 41.5 
Q 54.890625 34.8125 54.890625 23.390625 
Q 54.890625 11.625 47.5625 5.09375 
Q 40.234375 -1.421875 26.90625 -1.421875 
Q 22.3125 -1.421875 17.546875 -0.640625 
Q 12.796875 0.140625 7.71875 1.703125 
L 7.71875 11.625 
Q 12.109375 9.234375 16.796875 8.0625 
Q 21.484375 6.890625 26.703125 6.890625 
Q 35.15625 6.890625 40.078125 11.328125 
Q 45.015625 15.765625 45.015625 23.390625 
Q 45.015625 31 40.078125 35.4375 
Q 35.15625 39.890625 26.703125 39.890625 
Q 22.75 39.890625 18.8125 39.015625 
Q 14.890625 38.140625 10.796875 36.28125 
z
" id="DejaVuSans-35"/>
      </defs>
      <g transform="translate(44.2375 82.328563)scale(0.1 -0.1)">
       <use xlink:href="#DejaVuSans-35"/>
      </g>
     </g>
    </g>
    <g id="text_14">
     <!-- loss -->
     <defs>
      <path d="M 9.421875 75.984375 
L 18.40625 75.984375 
L 18.40625 0 
L 9.421875 0 
z
" id="DejaVuSans-6c"/>
      <path d="M 44.28125 53.078125 
L 44.28125 44.578125 
Q 40.484375 46.53125 36.375 47.5 
Q 32.28125 48.484375 27.875 48.484375 
Q 21.1875 48.484375 17.84375 46.4375 
Q 14.5 44.390625 14.5 40.28125 
Q 14.5 37.15625 16.890625 35.375 
Q 19.28125 33.59375 26.515625 31.984375 
L 29.59375 31.296875 
Q 39.15625 29.25 43.1875 25.515625 
Q 47.21875 21.78125 47.21875 15.09375 
Q 47.21875 7.46875 41.1875 3.015625 
Q 35.15625 -1.421875 24.609375 -1.421875 
Q 20.21875 -1.421875 15.453125 -0.5625 
Q 10.6875 0.296875 5.421875 2 
L 5.421875 11.28125 
Q 10.40625 8.6875 15.234375 7.390625 
Q 20.0625 6.109375 24.8125 6.109375 
Q 31.15625 6.109375 34.5625 8.28125 
Q 37.984375 10.453125 37.984375 14.40625 
Q 37.984375 18.0625 35.515625 20.015625 
Q 33.0625 21.96875 24.703125 23.78125 
L 21.578125 24.515625 
Q 13.234375 26.265625 9.515625 29.90625 
Q 5.8125 33.546875 5.8125 39.890625 
Q 5.8125 47.609375 11.28125 51.796875 
Q 16.75 56 26.8125 56 
Q 31.78125 56 36.171875 55.265625 
Q 40.578125 54.546875 44.28125 53.078125 
z
" id="DejaVuSans-73"/>
     </defs>
     <g transform="translate(38.157812 184.185812)rotate(-90)scale(0.1 -0.1)">
      <use xlink:href="#DejaVuSans-6c"/>
      <use x="27.783203" xlink:href="#DejaVuSans-6f"/>
      <use x="88.964844" xlink:href="#DejaVuSans-73"/>
      <use x="141.064453" xlink:href="#DejaVuSans-73"/>
     </g>
    </g>
   </g>
   <g id="line2d_13">
    <path clip-path="url(#pa50e8c9e60)" d="M 73.832727 53.568 
L 74.157707 53.682255 
L 74.482686 54.159968 
L 74.807666 60.799898 
L 75.132645 70.880446 
L 75.782604 80.993086 
L 76.432563 96.639125 
L 77.732482 129.440278 
L 79.0324 154.401059 
L 80.332318 174.763983 
L 80.982277 183.386455 
L 81.632236 191.390648 
L 82.932154 204.893779 
L 83.907093 213.174412 
L 84.882031 219.519143 
L 85.53199 223.676295 
L 87.156888 231.94892 
L 87.806847 234.618848 
L 90.406683 243.788555 
L 91.381622 246.264732 
L 91.706601 247.558286 
L 92.031581 248.24129 
L 92.35656 249.286688 
L 92.68154 249.844611 
L 93.331499 251.354906 
L 94.306437 253.490256 
L 94.631417 253.926489 
L 95.281376 255.36386 
L 95.606355 255.732263 
L 95.931335 256.675478 
L 96.256314 257.119277 
L 96.906274 258.401576 
L 97.556233 259.411049 
L 101.131007 264.367547 
L 101.455987 264.556336 
L 102.105946 265.42073 
L 103.080885 266.586678 
L 103.405864 267.204935 
L 104.055823 267.555199 
L 104.380803 267.798779 
L 105.355741 268.980907 
L 106.0057 269.427936 
L 106.33068 269.650564 
L 107.305618 270.699979 
L 108.280557 271.207715 
L 109.580475 272.537673 
L 109.905455 272.454607 
L 110.555414 273.37252 
L 110.880393 273.376207 
L 111.205373 273.671181 
L 112.180311 273.874873 
L 112.83027 274.555003 
L 113.15525 274.450624 
L 113.805209 275.189684 
L 114.455168 275.274538 
L 114.780147 275.730396 
L 115.105127 275.846995 
L 115.430106 275.829577 
L 115.755086 276.258274 
L 116.080066 276.35237 
L 117.055004 277.072766 
L 117.379984 276.932182 
L 117.704963 277.340735 
L 118.029943 277.28679 
L 118.354922 277.650566 
L 118.679902 277.633179 
L 119.004881 277.911253 
L 119.329861 277.844106 
L 119.65484 278.415124 
L 120.304799 278.463256 
L 120.629779 278.409246 
L 120.954758 278.776926 
L 121.279738 278.670093 
L 122.254676 279.512179 
L 122.579656 279.521851 
L 122.904636 279.39724 
L 123.229615 279.496488 
L 123.554595 279.924292 
L 123.879574 280.05704 
L 124.204554 280.012105 
L 125.179492 280.488218 
L 125.504472 280.480745 
L 125.829451 280.65893 
L 126.154431 280.554897 
L 126.80439 281.011217 
L 127.129369 280.872857 
L 127.454349 281.218883 
L 128.104308 281.496182 
L 128.429287 281.342584 
L 129.079247 281.803978 
L 129.729206 281.845991 
L 130.379165 282.235438 
L 130.704144 282.026939 
L 131.029124 282.537655 
L 131.679083 282.455534 
L 132.004062 282.674891 
L 134.278919 283.208924 
L 134.603898 283.514226 
L 135.253857 283.399537 
L 135.578837 283.685687 
L 135.903817 283.57762 
L 136.228796 283.78058 
L 136.553776 283.674311 
L 137.528714 284.043961 
L 137.853694 283.890891 
L 138.178673 283.878651 
L 138.503653 284.21991 
L 138.828632 284.329024 
L 139.153612 284.305491 
L 139.803571 284.805975 
L 140.45353 284.463476 
L 140.778509 284.881151 
L 141.103489 284.58586 
L 141.428468 285.107208 
L 141.753448 285.210845 
L 142.078428 285.020319 
L 142.403407 285.216778 
L 143.053366 285.307303 
L 143.378346 285.395011 
L 143.703325 285.265291 
L 144.353284 285.339177 
L 144.678264 285.528048 
L 145.328223 285.648917 
L 145.653202 285.816501 
L 145.978182 285.72834 
L 146.95312 285.851644 
L 147.2781 285.861225 
L 147.603079 286.181198 
L 148.253038 286.039435 
L 148.578018 286.401268 
L 149.227977 286.15525 
L 149.552957 286.490582 
L 150.202916 286.566279 
L 150.527895 286.400212 
L 150.852875 286.661728 
L 151.177854 286.576465 
L 152.477772 286.894103 
L 152.802752 286.694999 
L 153.127731 287.018549 
L 153.452711 286.822271 
L 153.77769 286.877012 
L 154.10267 287.360626 
L 154.427649 286.953895 
L 155.077609 287.520824 
L 155.402588 287.271439 
L 155.727568 287.218018 
L 157.352465 287.585598 
L 157.677445 287.835914 
L 158.002424 287.545458 
L 158.327404 287.854607 
L 158.652383 287.647951 
L 159.302342 287.946833 
L 160.277281 287.729794 
L 160.60226 288.031494 
L 161.577199 288.235963 
L 161.902179 287.945099 
L 162.227158 288.047494 
L 162.877117 288.4287 
L 163.202097 288.171978 
L 163.527076 288.113955 
L 164.177035 288.34366 
L 164.502015 288.298258 
L 165.476953 288.62834 
L 165.801933 288.318282 
L 166.126912 288.521066 
L 166.776871 288.528864 
L 167.101851 288.574536 
L 167.42683 288.904296 
L 168.07679 288.695506 
L 168.401769 288.815976 
L 168.726749 288.731726 
L 169.051728 288.810666 
L 169.376708 288.735415 
L 169.701687 289.046107 
L 170.351646 289.052993 
L 170.676626 288.924779 
L 171.001605 289.226151 
L 171.326585 289.040398 
L 171.976544 289.180442 
L 172.301523 289.048248 
L 172.626503 289.428239 
L 172.951482 289.157046 
L 173.276462 289.435115 
L 173.601441 289.239228 
L 174.2514 289.397747 
L 174.57638 289.267438 
L 174.90136 289.396494 
L 175.226339 289.65084 
L 175.551319 289.397299 
L 175.876298 289.646373 
L 176.201278 289.709803 
L 176.851237 289.438337 
L 177.826175 289.93557 
L 178.151155 289.765094 
L 178.476134 289.729128 
L 179.126093 289.922325 
L 179.776052 289.762564 
L 180.101032 289.964794 
L 180.426011 290.002899 
L 180.750991 289.812627 
L 181.40095 290.098329 
L 181.72593 289.71277 
L 182.050909 290.043411 
L 182.375889 290.211372 
L 182.700868 290.213024 
L 183.025848 290.003618 
L 183.350827 290.284172 
L 183.675807 290.141822 
L 184.000786 290.258336 
L 184.975725 290.134053 
L 185.300704 290.45236 
L 185.625684 290.25512 
L 185.950663 290.338498 
L 186.275643 290.545461 
L 186.600622 290.48242 
L 186.925602 290.638094 
L 187.250581 290.398823 
L 187.900541 290.544264 
L 188.22552 290.282251 
L 188.5505 290.663131 
L 188.875479 290.413971 
L 189.200459 290.596292 
L 189.525438 290.571037 
L 189.850418 290.798457 
L 190.175397 290.665953 
L 190.500377 290.78796 
L 190.825356 290.626664 
L 191.150336 290.719898 
L 191.800295 290.620344 
L 192.125274 290.76367 
L 192.450254 290.710265 
L 192.775233 290.877208 
L 193.100213 290.77274 
L 193.425192 290.867975 
L 193.750172 291.127563 
L 194.400131 290.921756 
L 195.05009 290.740666 
L 195.700049 290.980169 
L 196.025029 290.896517 
L 196.350008 291.157844 
L 196.674988 291.212352 
L 196.999967 291.068811 
L 197.324947 291.091974 
L 197.649926 290.993714 
L 197.974906 291.214566 
L 198.299885 290.984847 
L 198.624865 291.157161 
L 199.274824 290.818045 
L 199.924783 291.289063 
L 200.249762 291.165266 
L 200.574742 291.356758 
L 201.224701 291.214717 
L 201.549681 291.387267 
L 202.524619 291.24202 
L 203.824537 291.59727 
L 204.474496 291.391387 
L 204.799476 291.573353 
L 205.449435 291.627139 
L 205.774414 291.806998 
L 206.424373 291.393742 
L 206.749353 291.635935 
L 207.724292 291.60856 
L 208.049271 291.396098 
L 208.374251 291.62066 
L 209.349189 291.638674 
L 209.674169 291.796724 
L 209.999148 291.718219 
L 210.324128 291.841449 
L 210.649107 291.660892 
L 210.974087 291.705588 
L 211.299066 291.865223 
L 211.624046 291.839042 
L 211.949025 291.997379 
L 212.923964 291.848834 
L 213.573923 291.924968 
L 214.223882 291.789863 
L 214.873841 292.128045 
L 215.198821 291.987832 
L 215.5238 292.01567 
L 215.84878 291.877581 
L 216.173759 291.976406 
L 216.498739 292.268123 
L 216.823718 292.272151 
L 217.148698 292.118346 
L 217.473677 292.174495 
L 217.798657 292.012832 
L 218.448616 291.970716 
L 218.773595 291.919137 
L 219.098575 292.135221 
L 220.073514 292.194465 
L 220.398493 292.437936 
L 221.048452 292.306594 
L 221.373432 292.453075 
L 222.023391 292.348349 
L 223.648288 292.460826 
L 223.973268 292.521441 
L 224.298247 292.289857 
L 224.623227 292.421085 
L 225.273186 292.20299 
L 225.598165 292.580883 
L 225.923145 292.279089 
L 226.248124 292.62539 
L 226.573104 292.423726 
L 227.223063 292.484286 
L 227.548043 292.295811 
L 227.873022 292.441828 
L 228.198002 292.318538 
L 229.17294 292.594816 
L 229.49792 292.414366 
L 229.822899 292.613471 
L 231.122817 292.520711 
L 231.447797 292.817507 
L 231.772776 292.698327 
L 232.422735 292.713938 
L 232.747715 292.410436 
L 233.722654 292.808058 
L 234.697592 292.676738 
L 235.672531 292.75801 
L 235.99751 292.627079 
L 236.647469 292.949173 
L 237.297428 292.665608 
L 237.622408 292.880227 
L 238.272367 292.855123 
L 239.247305 292.668858 
L 239.572285 293.032254 
L 239.897265 292.953915 
L 240.222244 293.027607 
L 240.547224 292.95797 
L 240.872203 292.698434 
L 241.197183 292.885775 
L 242.172121 292.885891 
L 242.497101 293.053937 
L 243.472039 292.774714 
L 243.797019 293.04935 
L 244.446978 293.018827 
L 245.746896 293.161252 
L 246.071876 292.978199 
L 246.396855 293.114084 
L 246.721835 293.09797 
L 247.046814 292.871155 
L 247.696773 293.120493 
L 248.346732 293.036442 
L 248.671712 293.187497 
L 249.64665 293.234033 
L 250.296609 293.306109 
L 250.621589 293.119827 
L 251.596527 293.365468 
L 251.921507 293.072254 
L 252.246486 293.297528 
L 252.571466 293.08549 
L 252.896446 293.318897 
L 253.221425 293.160787 
L 253.871384 293.167886 
L 254.196364 293.284155 
L 254.521343 293.178474 
L 254.846323 293.416215 
L 255.171302 293.449538 
L 255.821261 293.174937 
L 256.146241 293.330683 
L 256.47122 293.263815 
L 256.7962 293.40372 
L 257.121179 293.262646 
L 257.771138 293.400602 
L 258.096118 293.230548 
L 258.421097 293.448522 
L 258.746077 293.383913 
L 259.396036 293.506898 
L 260.695954 293.425026 
L 261.345913 293.602014 
L 261.995872 293.465594 
L 262.320852 293.636724 
L 262.645831 293.678665 
L 262.970811 293.26865 
L 263.29579 293.606322 
L 263.62077 293.537321 
L 264.595708 293.757626 
L 264.920688 293.580087 
L 265.245667 293.679761 
L 265.570647 293.478725 
L 265.895627 293.76118 
L 266.220606 293.549274 
L 266.870565 293.493103 
L 267.195545 293.76593 
L 267.520524 293.608246 
L 267.845504 293.7559 
L 268.170483 293.540959 
L 268.820442 293.580789 
L 269.470401 293.60654 
L 269.795381 293.511795 
L 270.44534 293.827811 
L 270.770319 293.561237 
L 271.095299 293.717173 
L 271.420278 293.536297 
L 272.395217 293.78308 
L 272.720197 293.551026 
L 273.045176 293.769646 
L 273.370156 293.677188 
L 273.695135 293.804642 
L 274.020115 293.797313 
L 274.345094 293.671393 
L 274.670074 293.748255 
L 274.995053 293.979866 
L 275.320033 293.70795 
L 275.645012 293.725071 
L 275.969992 293.988952 
L 276.619951 293.939694 
L 277.26991 293.701715 
L 278.569828 293.886652 
L 278.894808 293.746329 
L 279.219787 294.063692 
L 279.544767 293.654325 
L 279.869746 293.875749 
L 280.519705 293.8282 
L 281.494644 294.006424 
L 281.819623 293.935341 
L 282.144603 293.734854 
L 282.469582 294.071881 
L 282.794562 294.124507 
L 283.119541 293.81921 
L 283.444521 294.022936 
L 283.7695 293.73181 
L 284.09448 293.96088 
L 285.394398 293.966937 
L 285.719378 294.060965 
L 286.044357 293.931626 
L 286.369337 294.095661 
L 286.694316 293.727282 
L 287.019296 294.119528 
L 287.344275 293.882966 
L 287.669255 294.109643 
L 288.644193 294.037113 
L 288.969173 294.164193 
L 289.294152 294.01166 
L 289.619132 293.994594 
L 289.944111 293.853109 
L 290.269091 294.188401 
L 290.59407 294.019894 
L 291.244029 294.253623 
L 291.569009 294.188735 
L 291.893989 293.992488 
L 292.543948 294.143474 
L 292.868927 294.0374 
L 293.518886 294.188603 
L 293.843866 294.039928 
L 294.168845 294.193531 
L 294.493825 294.169201 
L 294.818804 294.279956 
L 295.143784 294.168381 
L 295.468763 294.247189 
L 295.793743 294.103335 
L 296.118722 294.165315 
L 296.443702 293.947932 
L 296.768681 294.129174 
L 297.093661 294.158731 
L 297.41864 294.308242 
L 298.0686 294.111621 
L 299.043538 294.219152 
L 300.018477 294.305109 
L 300.668436 294.209628 
L 300.993415 294.20324 
L 301.643374 294.395928 
L 301.968354 294.381223 
L 302.293333 294.104181 
L 302.618313 294.439779 
L 302.943292 294.390619 
L 303.268272 294.199235 
L 303.593251 294.1804 
L 303.918231 294.378428 
L 304.24321 294.14723 
L 304.56819 294.324506 
L 304.89317 294.347408 
L 305.543129 294.185123 
L 305.868108 294.372413 
L 306.193088 294.130686 
L 306.518067 294.42414 
L 306.843047 294.292571 
L 307.168026 294.516994 
L 307.493006 294.301115 
L 308.467944 294.390102 
L 308.792924 294.42599 
L 309.442883 294.237272 
L 310.092842 294.585715 
L 310.742801 294.306317 
L 311.067781 294.470144 
L 312.367699 294.401066 
L 312.692678 294.203565 
L 313.342637 294.45289 
L 314.967535 294.513596 
L 316.267453 294.384124 
L 316.592432 294.60546 
L 316.917412 294.44009 
L 317.892351 294.646367 
L 318.21733 294.424939 
L 318.54231 294.688203 
L 318.867289 294.351188 
L 319.192269 294.507542 
L 319.517248 294.51604 
L 319.842228 294.714372 
L 320.167207 294.413781 
L 320.492187 294.357242 
L 320.817166 294.522807 
L 321.142146 294.531131 
L 321.467125 294.662578 
L 321.792105 294.543022 
L 322.117084 294.688841 
L 322.767043 294.499732 
L 323.417002 294.8204 
L 323.741982 294.3659 
L 324.391941 294.724486 
L 324.716921 294.471822 
L 325.0419 294.492342 
L 325.36688 294.384654 
L 325.691859 294.673314 
L 326.016839 294.529722 
L 326.666798 294.614109 
L 327.316757 294.696022 
L 327.641736 294.493721 
L 328.291695 294.674184 
L 328.941654 294.633978 
L 329.266634 294.842156 
L 330.566552 294.799294 
L 330.891532 294.602285 
L 331.86647 294.786553 
L 332.19145 294.676403 
L 333.166388 294.675647 
L 333.491368 294.561249 
L 333.816347 294.675549 
L 334.141327 294.636941 
L 334.466306 294.807615 
L 334.791286 294.615583 
L 335.116265 294.932901 
L 335.766224 294.715158 
L 336.416183 294.996961 
L 336.741163 294.786763 
L 337.391122 294.639563 
L 337.716102 294.835046 
L 338.366061 294.827481 
L 341.615856 294.751795 
L 341.940835 294.907074 
L 342.915774 294.79307 
L 343.240753 294.953987 
L 343.565733 294.639338 
L 343.890713 294.880067 
L 344.865651 294.781351 
L 345.51561 294.847165 
L 346.165569 294.804235 
L 347.465487 295.028503 
L 347.790467 294.759579 
L 348.115446 294.705914 
L 349.415364 295.04356 
L 349.740344 294.880183 
L 350.390303 294.913079 
L 351.040262 294.988094 
L 351.365242 294.740889 
L 351.690221 295.050813 
L 352.34018 295.012615 
L 352.66516 294.822732 
L 352.990139 295.040495 
L 353.315119 294.941688 
L 353.640098 295.004507 
L 353.965078 294.854618 
L 354.290057 294.835168 
L 354.615037 294.960083 
L 354.940016 294.858627 
L 355.264996 294.942677 
L 355.589975 294.846415 
L 355.914955 295.061517 
L 356.239934 295.059123 
L 356.564914 295.240283 
L 356.889894 294.858073 
L 357.214873 295.149094 
L 357.539853 294.923895 
L 357.864832 295.121553 
L 358.189812 294.924538 
L 358.839771 294.953932 
L 359.48973 294.953425 
L 360.139689 295.064596 
L 360.789648 294.946021 
L 361.114627 295.144357 
L 361.439607 294.969771 
L 361.764586 294.966133 
L 362.089566 295.107723 
L 362.414545 294.981965 
L 363.064505 295.099983 
L 364.039443 294.95126 
L 364.364423 295.092981 
L 365.014382 295.051945 
L 365.339361 295.020624 
L 365.664341 295.276357 
L 365.98932 294.978514 
L 366.3143 295.025593 
L 366.639279 295.225459 
L 366.964259 295.063703 
L 367.289238 295.137834 
L 367.614218 294.955423 
L 367.939197 295.140655 
L 368.264177 295.053808 
L 368.914136 295.165282 
L 369.564095 295.058768 
L 370.864013 295.218872 
L 371.513972 294.871703 
L 372.163931 295.31227 
L 372.81389 295.105399 
L 374.113808 295.135494 
L 374.763767 295.019011 
L 375.088747 295.226326 
L 375.738706 295.021469 
L 376.063686 295.163312 
L 376.388665 294.907136 
L 377.038624 295.299902 
L 377.363604 295.212678 
L 377.688583 295.266838 
L 378.013563 295.144316 
L 378.338542 295.21695 
L 379.313481 295.084691 
L 379.63846 295.308404 
L 379.96344 295.310799 
L 380.288419 295.200963 
L 380.613399 295.318603 
L 380.938378 295.219414 
L 381.263358 295.274171 
L 381.588337 295.131911 
L 382.888256 295.147243 
L 383.213235 295.30677 
L 384.188174 295.281858 
L 384.838133 295.270697 
L 385.163112 295.068438 
L 385.488092 295.283383 
L 385.813071 295.197801 
L 386.78801 295.353034 
L 387.112989 295.213488 
L 387.437969 295.384544 
L 387.762948 295.384472 
L 388.412907 295.194805 
L 389.387846 295.351398 
L 389.712826 295.170199 
L 390.037805 295.176888 
L 390.362785 295.388701 
L 391.012744 295.253842 
L 391.337723 295.411819 
L 391.662703 295.215786 
L 391.987682 295.355194 
L 392.312662 295.103835 
L 392.637641 295.351082 
L 393.2876 295.222172 
L 394.262539 295.249224 
L 394.587518 295.478633 
L 394.912498 295.24589 
L 395.237477 295.488 
L 395.562457 295.143216 
L 395.887437 295.376904 
L 396.212416 295.28777 
L 396.537396 295.437643 
L 396.862375 295.265639 
L 397.187355 295.479459 
L 397.512334 295.332849 
L 397.837314 295.385241 
L 398.487273 295.289946 
L 398.487273 295.289946 
" style="fill:none;stroke:#1f77b4;stroke-linecap:square;stroke-width:1.5;"/>
   </g>
   <g id="line2d_14">
    <path clip-path="url(#pa50e8c9e60)" d="M 73.832727 53.686741 
L 74.157707 53.727009 
L 74.482686 55.357933 
L 74.807666 65.916429 
L 76.107584 93.287755 
L 77.407502 126.112088 
L 79.0324 155.973675 
L 79.682359 163.94464 
L 80.007338 170.85535 
L 80.332318 174.299325 
L 80.982277 182.801303 
L 81.957215 194.007542 
L 82.282195 195.756901 
L 82.607174 199.788392 
L 83.582113 206.577637 
L 83.907093 207.041552 
L 84.232072 209.918374 
L 84.557052 210.541488 
L 84.882031 213.021938 
L 85.207011 212.204465 
L 85.53199 212.357223 
L 85.85697 216.810234 
L 86.181949 217.617555 
L 86.506929 219.987064 
L 86.831908 220.667869 
L 87.156888 222.701744 
L 88.131826 222.858075 
L 88.456806 224.9012 
L 88.781785 225.020881 
L 89.106765 227.793383 
L 89.756724 226.48354 
L 90.081704 229.750446 
L 90.406683 229.949759 
L 91.056642 231.604408 
L 91.381622 232.693593 
L 91.706601 232.700961 
L 92.031581 233.855577 
L 92.35656 234.204253 
L 93.006519 235.256528 
L 93.331499 235.796005 
L 93.656478 233.627258 
L 93.981458 236.134364 
L 94.306437 237.150956 
L 94.631417 237.67253 
L 94.956396 237.899953 
L 95.281376 236.025253 
L 95.606355 238.186732 
L 95.931335 238.567822 
L 96.256314 237.863425 
L 96.581294 239.669557 
L 96.906274 240.108231 
L 97.231253 239.31777 
L 97.556233 236.550811 
L 97.881212 241.310897 
L 98.206192 241.48197 
L 98.531171 241.278523 
L 98.856151 241.951584 
L 99.50611 241.407112 
L 99.831089 241.602015 
L 100.156069 241.419657 
L 100.481048 241.846358 
L 100.806028 242.564315 
L 101.455987 242.785637 
L 101.780966 244.073046 
L 102.430925 244.922293 
L 102.755905 244.603246 
L 103.080885 245.078713 
L 103.405864 243.363951 
L 103.730844 244.467693 
L 104.055823 244.024922 
L 104.380803 245.357009 
L 104.705782 244.761596 
L 105.030762 240.779823 
L 105.355741 245.605558 
L 105.680721 244.795787 
L 106.0057 246.039823 
L 106.33068 245.827479 
L 106.655659 246.348975 
L 106.980639 246.441575 
L 107.630598 246.87196 
L 107.955577 247.820864 
L 108.280557 243.487893 
L 108.605536 247.126192 
L 108.930516 247.658383 
L 109.255495 243.541584 
L 109.580475 246.726832 
L 109.905455 247.942028 
L 110.230434 247.149342 
L 110.555414 247.580636 
L 110.880393 247.707189 
L 111.205373 248.032317 
L 111.530352 248.044793 
L 111.855332 247.930627 
L 112.180311 248.500169 
L 112.505291 246.717653 
L 112.83027 247.756818 
L 113.15525 249.389094 
L 113.480229 248.240295 
L 113.805209 249.095669 
L 114.130188 249.242825 
L 114.455168 247.865861 
L 114.780147 249.044306 
L 115.105127 249.228507 
L 115.430106 247.717756 
L 115.755086 248.380509 
L 116.080066 249.677307 
L 116.405045 249.928333 
L 117.055004 246.781448 
L 117.379984 250.479601 
L 117.704963 249.653306 
L 118.029943 250.704786 
L 118.354922 250.128109 
L 118.679902 249.308437 
L 119.004881 250.428191 
L 119.329861 250.630119 
L 119.65484 248.003189 
L 119.97982 250.711165 
L 120.304799 249.859636 
L 120.629779 249.743239 
L 120.954758 249.434885 
L 121.279738 248.965012 
L 121.604717 251.252583 
L 121.929697 249.24617 
L 122.254676 251.287147 
L 122.579656 249.33437 
L 123.229615 251.649421 
L 123.554595 251.044346 
L 123.879574 251.617997 
L 124.204554 251.173277 
L 124.529533 250.245374 
L 124.854513 251.573421 
L 125.179492 250.826522 
L 125.504472 251.712295 
L 126.47941 251.516991 
L 127.454349 250.516123 
L 127.779328 251.815106 
L 128.104308 251.212179 
L 128.429287 252.606244 
L 128.754267 252.10666 
L 129.079247 251.381873 
L 129.404226 251.831473 
L 129.729206 253.119539 
L 130.054185 252.406561 
L 130.704144 252.895651 
L 131.029124 252.846373 
L 131.354103 248.224823 
L 131.679083 251.818399 
L 132.004062 252.451818 
L 132.329042 251.847681 
L 132.654021 250.615615 
L 132.979001 251.583285 
L 133.30398 249.896015 
L 133.62896 252.880198 
L 133.953939 250.68605 
L 134.278919 253.02429 
L 134.928878 251.610611 
L 135.253857 252.64316 
L 135.578837 252.16448 
L 135.903817 252.83285 
L 136.228796 252.838907 
L 136.553776 252.085344 
L 136.878755 250.33935 
L 137.203735 252.317094 
L 137.528714 253.080791 
L 137.853694 252.959463 
L 138.178673 253.104781 
L 138.503653 252.930986 
L 138.828632 253.211409 
L 139.153612 251.18674 
L 139.478591 253.032957 
L 139.803571 253.166901 
L 140.12855 252.768877 
L 140.45353 252.038842 
L 140.778509 253.169114 
L 141.103489 253.544947 
L 141.428468 247.066673 
L 142.078428 252.766176 
L 142.403407 253.571963 
L 142.728387 252.152847 
L 143.053366 253.508325 
L 143.703325 253.050927 
L 144.028305 253.611013 
L 144.353284 253.063566 
L 144.678264 253.535493 
L 145.003243 253.45797 
L 145.328223 253.687988 
L 145.653202 253.502843 
L 145.978182 253.781419 
L 146.303161 253.495047 
L 146.628141 252.907972 
L 147.2781 253.928641 
L 147.603079 253.109334 
L 147.928059 253.56225 
L 148.253038 254.255247 
L 148.578018 250.717106 
L 148.902998 254.380459 
L 149.227977 253.253382 
L 149.552957 254.22147 
L 149.877936 253.523918 
L 150.202916 253.918864 
L 150.527895 251.940872 
L 150.852875 254.156764 
L 151.177854 253.916223 
L 151.502834 253.311718 
L 151.827813 254.04039 
L 152.152793 254.339744 
L 152.477772 253.901175 
L 152.802752 254.618186 
L 153.127731 251.125352 
L 153.452711 254.806425 
L 153.77769 252.992082 
L 154.10267 253.78336 
L 154.427649 254.073232 
L 155.077609 254.338465 
L 155.402588 253.410432 
L 155.727568 254.07776 
L 156.052547 253.242172 
L 156.377527 251.635906 
L 156.702506 254.199066 
L 157.027486 254.271583 
L 157.352465 253.921804 
L 157.677445 252.632582 
L 158.002424 253.68954 
L 158.327404 253.914694 
L 158.652383 255.03943 
L 158.977363 254.421434 
L 159.302342 252.374919 
L 159.627322 254.578577 
L 159.952301 255.01686 
L 160.277281 254.353633 
L 160.60226 254.760491 
L 160.92724 252.549969 
L 161.252219 254.939073 
L 161.577199 254.357792 
L 161.902179 254.713454 
L 162.227158 254.485728 
L 162.552138 251.779517 
L 163.202097 255.004686 
L 163.527076 253.870451 
L 163.852056 253.747204 
L 164.177035 255.258728 
L 164.502015 253.106259 
L 164.826994 254.735323 
L 165.151974 254.486205 
L 165.476953 254.796975 
L 165.801933 251.796486 
L 166.451892 254.427611 
L 166.776871 255.095564 
L 167.101851 254.679105 
L 167.42683 253.856563 
L 167.75181 255.47459 
L 168.07679 254.716152 
L 168.401769 255.065607 
L 168.726749 254.036827 
L 169.051728 253.932891 
L 169.701687 255.231035 
L 170.026667 253.695188 
L 170.351646 255.197783 
L 170.676626 253.379735 
L 171.001605 254.366583 
L 171.326585 254.051376 
L 171.651564 253.400636 
L 171.976544 254.896923 
L 172.301523 255.457843 
L 172.626503 254.994896 
L 172.951482 254.959848 
L 173.601441 254.291339 
L 173.926421 255.378231 
L 174.2514 254.322291 
L 174.57638 255.098498 
L 174.90136 254.725407 
L 175.226339 255.670882 
L 175.551319 255.527309 
L 175.876298 255.190042 
L 176.201278 253.280949 
L 176.526257 254.993963 
L 176.851237 255.232624 
L 177.176216 253.982488 
L 177.501196 254.705715 
L 177.826175 254.977415 
L 178.151155 254.61228 
L 178.476134 255.233937 
L 178.801114 255.376088 
L 179.776052 254.057033 
L 180.101032 254.886368 
L 180.426011 255.109159 
L 180.750991 252.076362 
L 181.075971 254.537007 
L 181.40095 255.090624 
L 182.050909 255.224996 
L 182.375889 254.370624 
L 182.700868 254.938897 
L 183.025848 253.813677 
L 183.350827 253.40548 
L 183.675807 255.150254 
L 184.000786 254.694607 
L 184.650745 255.58944 
L 184.975725 254.286764 
L 185.625684 255.285093 
L 185.950663 253.68849 
L 186.275643 254.901488 
L 186.600622 255.150173 
L 186.925602 254.806428 
L 187.250581 255.246078 
L 187.575561 254.157572 
L 187.900541 254.188699 
L 188.22552 255.656428 
L 188.875479 254.300028 
L 189.200459 252.250914 
L 189.525438 255.653982 
L 189.850418 255.929119 
L 190.175397 255.354528 
L 190.500377 255.203567 
L 190.825356 255.430796 
L 191.150336 253.571038 
L 191.475315 254.48743 
L 191.800295 255.030571 
L 192.125274 254.411086 
L 192.450254 255.416367 
L 192.775233 254.558759 
L 193.100213 254.03167 
L 193.425192 254.160628 
L 194.075152 251.190695 
L 194.725111 255.221584 
L 195.05009 253.783059 
L 195.37507 255.789239 
L 195.700049 255.803438 
L 196.025029 253.71773 
L 196.350008 256.135716 
L 196.674988 255.299667 
L 196.999967 255.441147 
L 197.974906 252.448686 
L 198.299885 255.369671 
L 198.624865 255.120281 
L 198.949844 253.815637 
L 199.274824 253.429586 
L 199.599803 255.33579 
L 199.924783 255.745818 
L 200.249762 254.895427 
L 200.574742 255.862701 
L 200.899722 255.117218 
L 201.224701 255.582387 
L 201.549681 255.373385 
L 201.87466 252.749596 
L 202.19964 255.851438 
L 202.524619 256.012919 
L 202.849599 254.609039 
L 203.174578 256.076923 
L 203.499558 254.812861 
L 203.824537 255.176649 
L 204.149517 255.002107 
L 204.474496 255.693697 
L 205.124455 256.124289 
L 205.449435 255.8528 
L 206.099394 254.893115 
L 206.424373 255.873488 
L 206.749353 255.595969 
L 207.074333 256.065693 
L 207.399312 255.604636 
L 207.724292 256.027997 
L 208.049271 256.195014 
L 208.374251 255.879725 
L 208.69923 255.3948 
L 209.02421 254.550211 
L 209.349189 255.308221 
L 209.674169 255.12021 
L 210.324128 255.923162 
L 210.649107 254.733926 
L 210.974087 254.181067 
L 211.299066 255.517127 
L 211.624046 255.265006 
L 211.949025 254.487019 
L 212.274005 255.755683 
L 212.598984 256.219681 
L 212.923964 252.71321 
L 213.248943 255.692401 
L 213.573923 255.637472 
L 213.898903 255.264075 
L 214.223882 254.251609 
L 214.548862 255.178369 
L 214.873841 250.557084 
L 215.198821 256.216939 
L 215.5238 254.056594 
L 215.84878 256.494847 
L 216.173759 255.960712 
L 216.498739 255.779126 
L 216.823718 255.088994 
L 217.148698 255.359761 
L 217.473677 255.097036 
L 217.798657 256.404072 
L 218.448616 256.495157 
L 218.773595 254.874022 
L 219.098575 256.208938 
L 219.423554 255.656947 
L 219.748534 256.362303 
L 220.073514 256.374076 
L 220.398493 254.484831 
L 221.048452 256.052717 
L 221.373432 255.421178 
L 221.698411 255.844666 
L 222.023391 255.018751 
L 222.34837 253.382945 
L 222.67335 254.908244 
L 222.998329 255.505318 
L 223.323309 255.717419 
L 223.648288 255.192689 
L 223.973268 255.006246 
L 224.298247 254.391666 
L 224.623227 255.707683 
L 224.948206 255.730206 
L 225.273186 254.288483 
L 225.598165 256.067567 
L 226.573104 254.26893 
L 226.898084 254.233567 
L 227.223063 255.94253 
L 227.548043 256.325779 
L 227.873022 255.714029 
L 228.198002 256.667584 
L 228.522981 256.400043 
L 228.847961 255.916215 
L 229.17294 256.153453 
L 229.49792 252.100434 
L 229.822899 255.291292 
L 230.147879 255.82409 
L 230.472858 255.340713 
L 230.797838 256.323969 
L 231.122817 253.960922 
L 231.447797 255.622363 
L 231.772776 256.229334 
L 232.097756 255.920496 
L 232.422735 255.817325 
L 232.747715 256.062604 
L 233.072695 253.977919 
L 233.397674 256.017855 
L 233.722654 256.049942 
L 234.047633 255.409659 
L 234.372613 255.975147 
L 234.697592 255.615392 
L 235.022572 255.921451 
L 235.347551 256.006931 
L 235.672531 255.771331 
L 235.99751 254.865964 
L 236.32249 256.140081 
L 236.972449 254.756088 
L 237.297428 255.755577 
L 237.622408 256.01474 
L 237.947387 255.107652 
L 238.272367 253.38451 
L 238.597346 254.999076 
L 238.922326 256.036924 
L 239.247305 254.987614 
L 239.572285 255.786716 
L 239.897265 256.257387 
L 240.222244 254.641983 
L 240.547224 256.174195 
L 240.872203 252.723313 
L 241.197183 256.382661 
L 241.522162 255.670564 
L 241.847142 255.941682 
L 242.497101 255.940666 
L 242.82208 256.043134 
L 243.14706 252.156564 
L 243.472039 256.244842 
L 243.797019 255.554833 
L 244.121998 256.375933 
L 244.446978 255.724189 
L 244.771957 256.2438 
L 245.096937 255.032661 
L 245.421916 256.164798 
L 245.746896 256.042179 
L 246.071876 256.064669 
L 246.396855 255.830854 
L 246.721835 256.077552 
L 247.046814 255.1571 
L 247.371794 255.679201 
L 247.696773 254.166347 
L 248.021753 256.112807 
L 248.346732 256.629369 
L 248.671712 255.850491 
L 248.996691 254.678212 
L 249.321671 255.728096 
L 249.64665 256.030767 
L 249.97163 255.762521 
L 250.296609 256.029914 
L 250.946568 255.68587 
L 251.271548 254.663772 
L 251.596527 256.504699 
L 251.921507 255.774362 
L 252.246486 255.924694 
L 252.571466 256.514247 
L 252.896446 255.356206 
L 253.546405 256.301137 
L 253.871384 256.223963 
L 254.196364 253.551163 
L 254.521343 256.078844 
L 254.846323 255.413875 
L 255.171302 255.386775 
L 255.496282 256.136934 
L 255.821261 255.90144 
L 256.146241 255.41509 
L 256.7962 256.488491 
L 257.121179 255.952753 
L 257.446159 256.275249 
L 257.771138 256.417931 
L 258.096118 253.81646 
L 258.421097 256.050844 
L 258.746077 255.715103 
L 259.071057 250.391145 
L 259.396036 254.918141 
L 259.721016 255.880951 
L 260.045995 255.699005 
L 260.370975 256.452278 
L 260.695954 256.172105 
L 261.020934 256.561137 
L 261.345913 254.492832 
L 261.995872 256.624225 
L 262.320852 255.698808 
L 262.645831 255.742323 
L 262.970811 253.004782 
L 263.62077 256.1207 
L 263.945749 254.14243 
L 264.595708 256.273097 
L 264.920688 256.437521 
L 265.245667 255.465934 
L 265.570647 256.346589 
L 265.895627 255.666515 
L 266.220606 255.848127 
L 266.545586 256.61863 
L 266.870565 255.652114 
L 267.195545 253.988172 
L 267.520524 255.763771 
L 267.845504 255.693473 
L 268.170483 254.791916 
L 268.495463 255.267624 
L 268.820442 256.421665 
L 269.145422 256.201719 
L 269.470401 256.235433 
L 269.795381 256.047148 
L 270.12036 255.191231 
L 270.44534 255.6065 
L 270.770319 254.894803 
L 271.095299 256.140247 
L 271.420278 256.518928 
L 271.745258 256.440488 
L 272.070238 256.241179 
L 272.395217 253.829017 
L 272.720197 255.838063 
L 273.045176 256.193069 
L 273.370156 256.229711 
L 273.695135 256.100384 
L 274.020115 255.702772 
L 274.345094 255.768607 
L 274.670074 256.305226 
L 274.995053 256.143827 
L 275.320033 255.409803 
L 275.645012 256.107638 
L 275.969992 256.246948 
L 276.294971 255.948155 
L 276.619951 253.996803 
L 276.94493 255.152944 
L 277.26991 255.897879 
L 277.594889 256.192328 
L 277.919869 255.022981 
L 278.244848 255.305234 
L 278.569828 256.03029 
L 278.894808 255.307013 
L 279.219787 256.097928 
L 279.544767 252.820828 
L 279.869746 255.465407 
L 280.194726 255.906384 
L 280.519705 255.912037 
L 280.844685 256.488976 
L 281.169664 255.696803 
L 281.494644 254.201422 
L 281.819623 256.516808 
L 282.144603 255.323922 
L 282.469582 254.739408 
L 282.794562 256.228101 
L 283.119541 255.742139 
L 283.444521 255.95197 
L 283.7695 256.442495 
L 284.09448 254.939827 
L 284.419459 251.870241 
L 285.069419 256.892328 
L 285.394398 255.422581 
L 285.719378 256.12603 
L 286.044357 256.132966 
L 286.369337 256.400396 
L 286.694316 255.549927 
L 287.019296 256.460696 
L 287.344275 256.068588 
L 287.669255 256.079899 
L 288.319214 253.065176 
L 288.644193 255.315658 
L 289.294152 256.568652 
L 290.59407 255.883429 
L 290.91905 254.522861 
L 291.244029 255.995707 
L 291.569009 256.273178 
L 292.218968 252.451577 
L 292.543948 256.193074 
L 292.868927 255.530837 
L 293.193907 256.47388 
L 293.518886 256.763177 
L 293.843866 255.790669 
L 294.168845 256.072533 
L 294.493825 255.867367 
L 294.818804 256.849286 
L 295.143784 256.143042 
L 295.468763 256.704173 
L 295.793743 254.197536 
L 296.118722 256.057393 
L 296.768681 256.705937 
L 297.093661 256.149681 
L 297.41864 256.457082 
L 297.74362 254.18773 
L 298.0686 256.610324 
L 298.718559 255.965536 
L 299.043538 256.473125 
L 299.368518 255.663704 
L 299.693497 256.0532 
L 300.343456 256.421008 
L 300.668436 256.398465 
L 301.318395 256.024166 
L 301.643374 256.061148 
L 301.968354 256.243603 
L 302.293333 255.524844 
L 302.618313 252.535383 
L 303.268272 255.96219 
L 303.593251 256.248428 
L 303.918231 256.00297 
L 304.24321 253.135221 
L 304.89317 255.998523 
L 305.218149 255.433986 
L 305.543129 255.476206 
L 305.868108 256.497626 
L 306.193088 256.17877 
L 306.518067 256.351981 
L 306.843047 254.584001 
L 307.168026 255.689586 
L 307.493006 255.364429 
L 307.817985 256.506325 
L 308.142965 254.430837 
L 308.467944 257.135169 
L 308.792924 254.323699 
L 309.117903 253.930777 
L 309.442883 256.013761 
L 309.767862 255.55008 
L 310.092842 255.430715 
L 310.417821 256.295299 
L 310.742801 256.690762 
L 311.067781 255.821148 
L 311.39276 255.735934 
L 311.71774 254.637643 
L 312.042719 256.259569 
L 312.367699 255.451103 
L 312.692678 255.68172 
L 313.017658 256.375939 
L 313.667617 255.866186 
L 313.992596 255.873204 
L 314.317576 256.178397 
L 314.642555 255.504484 
L 314.967535 255.993476 
L 315.292514 255.913788 
L 315.617494 255.269679 
L 315.942473 256.351494 
L 316.592432 253.560798 
L 316.917412 256.144308 
L 317.242391 256.157094 
L 317.567371 255.988216 
L 317.892351 255.448078 
L 318.21733 255.830089 
L 318.54231 255.054644 
L 318.867289 257.081958 
L 319.192269 255.251526 
L 319.517248 256.61362 
L 319.842228 253.031893 
L 320.167207 256.661833 
L 320.492187 256.304622 
L 320.817166 255.742366 
L 321.142146 256.650569 
L 321.467125 253.265928 
L 321.792105 256.470112 
L 322.117084 255.726688 
L 322.442064 256.284341 
L 322.767043 256.2882 
L 323.417002 255.675418 
L 323.741982 254.011335 
L 324.066962 255.76194 
L 324.391941 253.374924 
L 324.716921 256.102085 
L 325.0419 255.884293 
L 325.36688 256.291387 
L 325.691859 255.32308 
L 326.016839 255.609938 
L 326.341818 256.338885 
L 326.666798 255.591322 
L 326.991777 256.47453 
L 327.316757 255.851604 
L 327.641736 256.358039 
L 327.966716 256.30046 
L 328.291695 255.830233 
L 328.616675 255.585067 
L 328.941654 255.484994 
L 329.266634 256.484459 
L 329.591613 255.96152 
L 329.916593 255.676363 
L 330.241572 255.929259 
L 330.566552 256.903819 
L 330.891532 255.711945 
L 331.216511 256.680182 
L 331.86647 254.442911 
L 332.19145 255.526961 
L 332.516429 256.033709 
L 332.841409 255.547562 
L 333.166388 255.373598 
L 333.491368 256.294692 
L 334.141327 256.216995 
L 334.466306 256.177464 
L 334.791286 253.553202 
L 335.116265 256.291286 
L 335.766224 256.691932 
L 336.416183 255.239551 
L 336.741163 251.700235 
L 337.066143 254.843686 
L 337.391122 256.401232 
L 337.716102 254.106717 
L 338.041081 256.254663 
L 338.69104 255.902189 
L 339.01602 256.058788 
L 339.340999 255.471458 
L 339.665979 255.200466 
L 339.990958 256.738802 
L 340.315938 256.588914 
L 340.640917 255.579064 
L 340.965897 256.985475 
L 341.290876 257.185354 
L 341.615856 255.787228 
L 341.940835 255.918728 
L 342.265815 256.49342 
L 342.590794 256.367591 
L 342.915774 255.316266 
L 343.240753 256.79593 
L 343.565733 256.646816 
L 343.890713 253.618413 
L 344.215692 256.844937 
L 344.865651 254.88185 
L 345.190631 256.494193 
L 345.51561 256.684167 
L 345.84059 256.683123 
L 346.165569 255.809569 
L 346.490549 256.45324 
L 346.815528 255.974962 
L 347.140508 254.744988 
L 347.465487 257.101806 
L 347.790467 253.932856 
L 348.115446 256.378513 
L 348.440426 256.600366 
L 348.765405 255.509093 
L 349.090385 255.714775 
L 349.415364 256.245941 
L 349.740344 255.882161 
L 350.065324 256.193359 
L 350.390303 257.037126 
L 350.715283 254.373475 
L 351.040262 256.341194 
L 351.365242 256.794483 
L 351.690221 256.279231 
L 352.66516 256.246179 
L 352.990139 256.845489 
L 353.315119 254.73336 
L 353.640098 254.00978 
L 353.965078 256.41013 
L 354.290057 256.130606 
L 354.615037 256.756005 
L 354.940016 256.431822 
L 355.264996 254.649931 
L 355.589975 254.632921 
L 355.914955 256.295607 
L 356.239934 256.584625 
L 356.889894 255.848567 
L 357.214873 256.05131 
L 357.539853 255.919241 
L 357.864832 255.592148 
L 358.189812 255.596599 
L 358.514791 256.453497 
L 358.839771 255.528951 
L 359.16475 256.225927 
L 359.48973 253.297844 
L 359.814709 256.738951 
L 360.139689 257.423953 
L 360.464668 257.137882 
L 361.114627 255.604339 
L 361.439607 256.124206 
L 361.764586 255.847784 
L 362.089566 256.749871 
L 362.414545 255.909146 
L 362.739525 255.79715 
L 363.064505 257.129054 
L 363.389484 255.14975 
L 363.714464 256.758224 
L 364.039443 256.644645 
L 364.364423 256.795622 
L 364.689402 256.000844 
L 365.014382 257.036591 
L 365.339361 256.581703 
L 365.664341 256.459444 
L 365.98932 255.983277 
L 366.3143 256.057721 
L 366.639279 256.830325 
L 366.964259 255.536198 
L 367.289238 255.545538 
L 367.614218 256.465563 
L 367.939197 256.060127 
L 368.264177 256.489509 
L 368.589156 256.669372 
L 368.914136 255.988569 
L 369.239115 256.926 
L 369.564095 254.51691 
L 369.889075 256.811025 
L 370.214054 256.213018 
L 370.539034 254.322743 
L 370.864013 254.084166 
L 371.188993 256.089453 
L 371.838952 257.054402 
L 372.163931 255.729035 
L 372.81389 255.702386 
L 373.13887 256.695726 
L 373.463849 256.482249 
L 373.788829 255.431298 
L 374.113808 256.550238 
L 374.763767 256.566532 
L 375.088747 255.117007 
L 375.413726 257.048615 
L 375.738706 256.138594 
L 376.063686 256.159855 
L 376.388665 254.613645 
L 376.713645 257.373374 
L 377.038624 255.894716 
L 377.363604 255.996923 
L 377.688583 255.697456 
L 378.013563 256.842739 
L 378.338542 255.57957 
L 378.663522 256.068466 
L 378.988501 257.122376 
L 379.63846 255.781047 
L 379.96344 256.262321 
L 380.288419 255.789277 
L 380.613399 256.184126 
L 380.938378 256.81301 
L 381.263358 256.530047 
L 381.588337 255.785717 
L 381.913317 256.670517 
L 382.238296 256.374744 
L 382.563276 255.616256 
L 382.888256 256.319948 
L 383.213235 255.111078 
L 383.538215 256.239549 
L 383.863194 256.1114 
L 384.188174 256.675901 
L 384.513153 254.641576 
L 385.163112 257.467794 
L 385.488092 255.599826 
L 385.813071 256.208016 
L 386.138051 255.115439 
L 386.46303 256.560869 
L 386.78801 255.51302 
L 387.112989 256.243864 
L 387.762948 255.454328 
L 388.087928 256.447488 
L 388.412907 256.476782 
L 388.737887 256.325236 
L 389.062867 256.362593 
L 389.387846 256.679853 
L 389.712826 255.824118 
L 390.037805 256.687554 
L 390.362785 256.708818 
L 390.687764 251.66557 
L 391.012744 256.398496 
L 391.662703 255.594667 
L 391.987682 256.378228 
L 392.312662 256.65826 
L 392.637641 256.276622 
L 392.962621 256.708647 
L 393.2876 255.521534 
L 393.61258 255.615192 
L 393.937559 255.463065 
L 394.262539 256.283042 
L 394.587518 256.175201 
L 394.912498 256.810177 
L 395.237477 256.3721 
L 395.562457 256.169411 
L 395.887437 257.101093 
L 396.212416 257.126829 
L 396.537396 256.676527 
L 396.862375 255.87659 
L 397.187355 255.748913 
L 397.512334 256.32689 
L 398.162293 255.563831 
L 398.487273 256.096682 
L 398.487273 256.096682 
" style="fill:none;stroke:#ff7f0e;stroke-linecap:square;stroke-width:1.5;"/>
   </g>
   <g id="patch_3">
    <path d="M 57.6 307.584 
L 57.6 41.472 
" style="fill:none;stroke:#000000;stroke-linecap:square;stroke-linejoin:miter;stroke-width:0.8;"/>
   </g>
   <g id="patch_4">
    <path d="M 414.72 307.584 
L 414.72 41.472 
" style="fill:none;stroke:#000000;stroke-linecap:square;stroke-linejoin:miter;stroke-width:0.8;"/>
   </g>
   <g id="patch_5">
    <path d="M 57.6 307.584 
L 414.72 307.584 
" style="fill:none;stroke:#000000;stroke-linecap:square;stroke-linejoin:miter;stroke-width:0.8;"/>
   </g>
   <g id="patch_6">
    <path d="M 57.6 41.472 
L 414.72 41.472 
" style="fill:none;stroke:#000000;stroke-linecap:square;stroke-linejoin:miter;stroke-width:0.8;"/>
   </g>
   <g id="text_15">
    <!-- model loss -->
    <defs>
     <path d="M 52 44.1875 
Q 55.375 50.25 60.0625 53.125 
Q 64.75 56 71.09375 56 
Q 79.640625 56 84.28125 50.015625 
Q 88.921875 44.046875 88.921875 33.015625 
L 88.921875 0 
L 79.890625 0 
L 79.890625 32.71875 
Q 79.890625 40.578125 77.09375 44.375 
Q 74.3125 48.1875 68.609375 48.1875 
Q 61.625 48.1875 57.5625 43.546875 
Q 53.515625 38.921875 53.515625 30.90625 
L 53.515625 0 
L 44.484375 0 
L 44.484375 32.71875 
Q 44.484375 40.625 41.703125 44.40625 
Q 38.921875 48.1875 33.109375 48.1875 
Q 26.21875 48.1875 22.15625 43.53125 
Q 18.109375 38.875 18.109375 30.90625 
L 18.109375 0 
L 9.078125 0 
L 9.078125 54.6875 
L 18.109375 54.6875 
L 18.109375 46.1875 
Q 21.1875 51.21875 25.484375 53.609375 
Q 29.78125 56 35.6875 56 
Q 41.65625 56 45.828125 52.96875 
Q 50 49.953125 52 44.1875 
z
" id="DejaVuSans-6d"/>
     <path d="M 45.40625 46.390625 
L 45.40625 75.984375 
L 54.390625 75.984375 
L 54.390625 0 
L 45.40625 0 
L 45.40625 8.203125 
Q 42.578125 3.328125 38.25 0.953125 
Q 33.9375 -1.421875 27.875 -1.421875 
Q 17.96875 -1.421875 11.734375 6.484375 
Q 5.515625 14.40625 5.515625 27.296875 
Q 5.515625 40.1875 11.734375 48.09375 
Q 17.96875 56 27.875 56 
Q 33.9375 56 38.25 53.625 
Q 42.578125 51.265625 45.40625 46.390625 
z
M 14.796875 27.296875 
Q 14.796875 17.390625 18.875 11.75 
Q 22.953125 6.109375 30.078125 6.109375 
Q 37.203125 6.109375 41.296875 11.75 
Q 45.40625 17.390625 45.40625 27.296875 
Q 45.40625 37.203125 41.296875 42.84375 
Q 37.203125 48.484375 30.078125 48.484375 
Q 22.953125 48.484375 18.875 42.84375 
Q 14.796875 37.203125 14.796875 27.296875 
z
" id="DejaVuSans-64"/>
     <path id="DejaVuSans-20"/>
    </defs>
    <g transform="translate(203.980312 35.472)scale(0.12 -0.12)">
     <use xlink:href="#DejaVuSans-6d"/>
     <use x="97.412109" xlink:href="#DejaVuSans-6f"/>
     <use x="158.59375" xlink:href="#DejaVuSans-64"/>
     <use x="222.070312" xlink:href="#DejaVuSans-65"/>
     <use x="283.59375" xlink:href="#DejaVuSans-6c"/>
     <use x="311.376953" xlink:href="#DejaVuSans-20"/>
     <use x="343.164062" xlink:href="#DejaVuSans-6c"/>
     <use x="370.947266" xlink:href="#DejaVuSans-6f"/>
     <use x="432.128906" xlink:href="#DejaVuSans-73"/>
     <use x="484.228516" xlink:href="#DejaVuSans-73"/>
    </g>
   </g>
   <g id="legend_1">
    <g id="patch_7">
     <path d="M 64.6 78.82825 
L 119.875 78.82825 
Q 121.875 78.82825 121.875 76.82825 
L 121.875 48.472 
Q 121.875 46.472 119.875 46.472 
L 64.6 46.472 
Q 62.6 46.472 62.6 48.472 
L 62.6 76.82825 
Q 62.6 78.82825 64.6 78.82825 
z
" style="fill:#ffffff;opacity:0.8;stroke:#cccccc;stroke-linejoin:miter;"/>
    </g>
    <g id="line2d_15">
     <path d="M 66.6 54.570437 
L 86.6 54.570437 
" style="fill:none;stroke:#1f77b4;stroke-linecap:square;stroke-width:1.5;"/>
    </g>
    <g id="line2d_16"/>
    <g id="text_16">
     <!-- train -->
     <defs>
      <path d="M 18.3125 70.21875 
L 18.3125 54.6875 
L 36.8125 54.6875 
L 36.8125 47.703125 
L 18.3125 47.703125 
L 18.3125 18.015625 
Q 18.3125 11.328125 20.140625 9.421875 
Q 21.96875 7.515625 27.59375 7.515625 
L 36.8125 7.515625 
L 36.8125 0 
L 27.59375 0 
Q 17.1875 0 13.234375 3.875 
Q 9.28125 7.765625 9.28125 18.015625 
L 9.28125 47.703125 
L 2.6875 47.703125 
L 2.6875 54.6875 
L 9.28125 54.6875 
L 9.28125 70.21875 
z
" id="DejaVuSans-74"/>
      <path d="M 41.109375 46.296875 
Q 39.59375 47.171875 37.8125 47.578125 
Q 36.03125 48 33.890625 48 
Q 26.265625 48 22.1875 43.046875 
Q 18.109375 38.09375 18.109375 28.8125 
L 18.109375 0 
L 9.078125 0 
L 9.078125 54.6875 
L 18.109375 54.6875 
L 18.109375 46.1875 
Q 20.953125 51.171875 25.484375 53.578125 
Q 30.03125 56 36.53125 56 
Q 37.453125 56 38.578125 55.875 
Q 39.703125 55.765625 41.0625 55.515625 
z
" id="DejaVuSans-72"/>
      <path d="M 34.28125 27.484375 
Q 23.390625 27.484375 19.1875 25 
Q 14.984375 22.515625 14.984375 16.5 
Q 14.984375 11.71875 18.140625 8.90625 
Q 21.296875 6.109375 26.703125 6.109375 
Q 34.1875 6.109375 38.703125 11.40625 
Q 43.21875 16.703125 43.21875 25.484375 
L 43.21875 27.484375 
z
M 52.203125 31.203125 
L 52.203125 0 
L 43.21875 0 
L 43.21875 8.296875 
Q 40.140625 3.328125 35.546875 0.953125 
Q 30.953125 -1.421875 24.3125 -1.421875 
Q 15.921875 -1.421875 10.953125 3.296875 
Q 6 8.015625 6 15.921875 
Q 6 25.140625 12.171875 29.828125 
Q 18.359375 34.515625 30.609375 34.515625 
L 43.21875 34.515625 
L 43.21875 35.40625 
Q 43.21875 41.609375 39.140625 45 
Q 35.0625 48.390625 27.6875 48.390625 
Q 23 48.390625 18.546875 47.265625 
Q 14.109375 46.140625 10.015625 43.890625 
L 10.015625 52.203125 
Q 14.9375 54.109375 19.578125 55.046875 
Q 24.21875 56 28.609375 56 
Q 40.484375 56 46.34375 49.84375 
Q 52.203125 43.703125 52.203125 31.203125 
z
" id="DejaVuSans-61"/>
      <path d="M 9.421875 54.6875 
L 18.40625 54.6875 
L 18.40625 0 
L 9.421875 0 
z
M 9.421875 75.984375 
L 18.40625 75.984375 
L 18.40625 64.59375 
L 9.421875 64.59375 
z
" id="DejaVuSans-69"/>
      <path d="M 54.890625 33.015625 
L 54.890625 0 
L 45.90625 0 
L 45.90625 32.71875 
Q 45.90625 40.484375 42.875 44.328125 
Q 39.84375 48.1875 33.796875 48.1875 
Q 26.515625 48.1875 22.3125 43.546875 
Q 18.109375 38.921875 18.109375 30.90625 
L 18.109375 0 
L 9.078125 0 
L 9.078125 54.6875 
L 18.109375 54.6875 
L 18.109375 46.1875 
Q 21.34375 51.125 25.703125 53.5625 
Q 30.078125 56 35.796875 56 
Q 45.21875 56 50.046875 50.171875 
Q 54.890625 44.34375 54.890625 33.015625 
z
" id="DejaVuSans-6e"/>
     </defs>
     <g transform="translate(94.6 58.070437)scale(0.1 -0.1)">
      <use xlink:href="#DejaVuSans-74"/>
      <use x="39.208984" xlink:href="#DejaVuSans-72"/>
      <use x="80.322266" xlink:href="#DejaVuSans-61"/>
      <use x="141.601562" xlink:href="#DejaVuSans-69"/>
      <use x="169.384766" xlink:href="#DejaVuSans-6e"/>
     </g>
    </g>
    <g id="line2d_17">
     <path d="M 66.6 69.248562 
L 86.6 69.248562 
" style="fill:none;stroke:#ff7f0e;stroke-linecap:square;stroke-width:1.5;"/>
    </g>
    <g id="line2d_18"/>
    <g id="text_17">
     <!-- test -->
     <g transform="translate(94.6 72.748562)scale(0.1 -0.1)">
      <use xlink:href="#DejaVuSans-74"/>
      <use x="39.208984" xlink:href="#DejaVuSans-65"/>
      <use x="100.732422" xlink:href="#DejaVuSans-73"/>
      <use x="152.832031" xlink:href="#DejaVuSans-74"/>
     </g>
    </g>
   </g>
  </g>
 </g>
 <defs>
  <clipPath id="pa50e8c9e60">
   <rect height="266.112" width="357.12" x="57.6" y="41.472"/>
  </clipPath>
 </defs>
</svg>
